<mxfile host="app.diagrams.net" modified="2020-09-17T22:33:48.625Z" agent="5.0 (Windows)" etag="yO01xIGwTcYwz9QWOp9e" version="13.7.3" type="gitlab">
  <diagram id="V40KHEEPjouQFQwQz0mn" name="Page-1">
    <mxGraphModel dx="3655" dy="3128" grid="1" gridSize="10" guides="1" tooltips="1" connect="1" arrows="1" fold="1" page="1" pageScale="1" pageWidth="850" pageHeight="1100" math="0" shadow="0">
      <root>
        <mxCell id="0" />
        <mxCell id="1" parent="0" />
        <mxCell id="oKtELSS2n7N4R0TemBai-120" value="" style="rounded=0;whiteSpace=wrap;html=1;strokeColor=#000000;fillColor=#FFFFFF;fontFamily=Georgia;fontSize=25;" parent="1" vertex="1">
          <mxGeometry x="1110" y="1010" width="390" height="160" as="geometry" />
        </mxCell>
        <mxCell id="oKtELSS2n7N4R0TemBai-30" value="" style="rounded=0;whiteSpace=wrap;html=1;fillColor=#E6E6E6;fontFamily=Georgia;fontSize=25;" parent="1" vertex="1">
          <mxGeometry x="1395" y="30" width="220" height="140" as="geometry" />
        </mxCell>
        <mxCell id="uB8tlWbp-hNkUQO73xYv-5" value="" style="endArrow=classic;html=1;strokeWidth=1;fontFamily=Georgia;fontSize=25;" parent="1" edge="1">
          <mxGeometry width="50" height="50" relative="1" as="geometry">
            <mxPoint x="86.5" y="197.5" as="sourcePoint" />
            <mxPoint x="86.92000000000007" y="335" as="targetPoint" />
          </mxGeometry>
        </mxCell>
        <mxCell id="uB8tlWbp-hNkUQO73xYv-6" value="" style="endArrow=classic;html=1;strokeWidth=1;fontFamily=Georgia;fontSize=25;" parent="1" edge="1">
          <mxGeometry width="50" height="50" relative="1" as="geometry">
            <mxPoint x="85" y="550" as="sourcePoint" />
            <mxPoint x="85.42000000000007" y="687.5" as="targetPoint" />
          </mxGeometry>
        </mxCell>
        <mxCell id="uB8tlWbp-hNkUQO73xYv-9" value="" style="ellipse;whiteSpace=wrap;html=1;rotation=130;direction=south;fillColor=#FFFFFF;fontFamily=Georgia;fontSize=25;" parent="1" vertex="1">
          <mxGeometry x="200" y="65" width="70" height="60" as="geometry" />
        </mxCell>
        <mxCell id="uB8tlWbp-hNkUQO73xYv-10" value="" style="ellipse;whiteSpace=wrap;html=1;direction=north;rotation=-45;fillColor=#FFFFFF;fontFamily=Georgia;fontSize=25;" parent="1" vertex="1">
          <mxGeometry x="135" y="90" width="120" height="100" as="geometry" />
        </mxCell>
        <mxCell id="uB8tlWbp-hNkUQO73xYv-11" value="" style="ellipse;whiteSpace=wrap;html=1;rotation=130;direction=south;fillColor=#FFFFFF;fontFamily=Georgia;fontSize=25;" parent="1" vertex="1">
          <mxGeometry x="95" y="355.62" width="95" height="80" as="geometry" />
        </mxCell>
        <mxCell id="uB8tlWbp-hNkUQO73xYv-12" value="" style="ellipse;whiteSpace=wrap;html=1;direction=north;rotation=-45;fillColor=#FFFFFF;fontFamily=Georgia;fontSize=25;" parent="1" vertex="1">
          <mxGeometry x="-4.0800000000000125" y="388.21" width="175" height="149.67" as="geometry" />
        </mxCell>
        <mxCell id="uB8tlWbp-hNkUQO73xYv-13" value="" style="ellipse;whiteSpace=wrap;html=1;aspect=fixed;strokeColor=#000000;fillColor=#FFFFFF;fontFamily=Georgia;fontSize=25;" parent="1" vertex="1">
          <mxGeometry x="-20" y="720" width="220" height="220" as="geometry" />
        </mxCell>
        <mxCell id="uB8tlWbp-hNkUQO73xYv-14" value="" style="ellipse;whiteSpace=wrap;html=1;aspect=fixed;strokeColor=#000000;fillColor=#FFFFFF;fontFamily=Georgia;fontSize=25;" parent="1" vertex="1">
          <mxGeometry x="4.199999999999989" y="750" width="80" height="80" as="geometry" />
        </mxCell>
        <mxCell id="uB8tlWbp-hNkUQO73xYv-15" value="" style="ellipse;whiteSpace=wrap;html=1;aspect=fixed;strokeColor=#000000;fillColor=#FFFFFF;fontFamily=Georgia;fontSize=25;" parent="1" vertex="1">
          <mxGeometry x="91.69999999999999" y="750" width="80" height="80" as="geometry" />
        </mxCell>
        <mxCell id="uB8tlWbp-hNkUQO73xYv-16" value="" style="ellipse;whiteSpace=wrap;html=1;aspect=fixed;strokeColor=#000000;fillColor=#FFFFFF;fontFamily=Georgia;fontSize=25;" parent="1" vertex="1">
          <mxGeometry x="11.699999999999989" y="840" width="80" height="80" as="geometry" />
        </mxCell>
        <mxCell id="uB8tlWbp-hNkUQO73xYv-17" value="" style="ellipse;whiteSpace=wrap;html=1;aspect=fixed;strokeColor=#000000;fillColor=#FFFFFF;fontFamily=Georgia;fontSize=25;" parent="1" vertex="1">
          <mxGeometry x="96.19999999999999" y="836" width="80" height="80" as="geometry" />
        </mxCell>
        <mxCell id="uB8tlWbp-hNkUQO73xYv-18" value="&lt;b&gt;&lt;font style=&quot;font-size: 25px&quot;&gt;X&lt;/font&gt;&lt;/b&gt;" style="text;html=1;align=center;verticalAlign=middle;resizable=0;points=[];autosize=1;fontFamily=Georgia;fontSize=25;" parent="1" vertex="1">
          <mxGeometry x="67.5" y="120" width="40" height="40" as="geometry" />
        </mxCell>
        <mxCell id="uB8tlWbp-hNkUQO73xYv-19" value="" style="endArrow=classic;html=1;strokeWidth=1;fontFamily=Georgia;fontSize=25;" parent="1" edge="1">
          <mxGeometry width="50" height="50" relative="1" as="geometry">
            <mxPoint x="77.84999999999997" y="1259.9999999999995" as="sourcePoint" />
            <mxPoint x="78.27000000000004" y="1397.4999999999995" as="targetPoint" />
          </mxGeometry>
        </mxCell>
        <mxCell id="uB8tlWbp-hNkUQO73xYv-31" value="&lt;font style=&quot;font-size: 25px;&quot;&gt;&lt;b style=&quot;font-size: 25px;&quot;&gt;&lt;font style=&quot;font-size: 25px;&quot;&gt;Mating&lt;/font&gt;&lt;/b&gt;&lt;/font&gt;" style="text;html=1;align=center;verticalAlign=middle;resizable=0;points=[];autosize=1;fontFamily=Georgia;fontSize=25;" parent="1" vertex="1">
          <mxGeometry x="102.5" y="250" width="110" height="40" as="geometry" />
        </mxCell>
        <mxCell id="uB8tlWbp-hNkUQO73xYv-32" value="&lt;font style=&quot;font-size: 25px;&quot;&gt;&lt;b style=&quot;font-size: 25px;&quot;&gt;&lt;font style=&quot;font-size: 25px;&quot;&gt;Sporulation&lt;/font&gt;&lt;/b&gt;&lt;/font&gt;" style="text;html=1;align=center;verticalAlign=middle;resizable=0;points=[];autosize=1;fontFamily=Georgia;fontSize=25;" parent="1" vertex="1">
          <mxGeometry x="100" y="600" width="170" height="40" as="geometry" />
        </mxCell>
        <mxCell id="uB8tlWbp-hNkUQO73xYv-33" value="&lt;div style=&quot;font-size: 25px&quot;&gt;&lt;font style=&quot;font-size: 25px&quot;&gt;&lt;b style=&quot;font-size: 25px&quot;&gt;&lt;font style=&quot;font-size: 25px&quot;&gt;Germination/&lt;br&gt;Haploid Selection&lt;br style=&quot;font-size: 25px&quot;&gt;&lt;/font&gt;&lt;/b&gt;&lt;/font&gt;&lt;/div&gt;" style="text;html=1;align=center;verticalAlign=middle;resizable=0;points=[];autosize=1;fontFamily=Georgia;fontSize=25;" parent="1" vertex="1">
          <mxGeometry x="114.99999999999996" y="1273" width="240" height="70" as="geometry" />
        </mxCell>
        <mxCell id="uB8tlWbp-hNkUQO73xYv-35" value="&lt;font style=&quot;font-size: 25px;&quot;&gt;&lt;b style=&quot;font-size: 25px;&quot;&gt;&lt;font style=&quot;font-size: 25px;&quot;&gt;ORF-GFP::His3&lt;/font&gt;&lt;/b&gt;&lt;/font&gt;" style="text;html=1;align=center;verticalAlign=middle;resizable=0;points=[];autosize=1;fontFamily=Georgia;fontSize=25;" parent="1" vertex="1">
          <mxGeometry x="102.5" y="192" width="220" height="40" as="geometry" />
        </mxCell>
        <mxCell id="uB8tlWbp-hNkUQO73xYv-49" value="&lt;font style=&quot;font-size: 25px;&quot;&gt;&lt;b style=&quot;font-size: 25px;&quot;&gt;&lt;font style=&quot;font-size: 25px;&quot;&gt;MATa&lt;/font&gt;&lt;/b&gt;&lt;/font&gt;" style="text;html=1;align=center;verticalAlign=middle;resizable=0;points=[];autosize=1;fontFamily=Georgia;fontSize=25;" parent="1" vertex="1">
          <mxGeometry x="255" y="122.5" width="90" height="40" as="geometry" />
        </mxCell>
        <mxCell id="uB8tlWbp-hNkUQO73xYv-50" value="&lt;font style=&quot;font-size: 25px;&quot;&gt;&lt;b style=&quot;font-size: 25px;&quot;&gt;&lt;font style=&quot;font-size: 25px;&quot;&gt;MATα&lt;/font&gt;&lt;/b&gt;&lt;/font&gt;" style="text;html=1;align=center;verticalAlign=middle;resizable=0;points=[];autosize=1;fontFamily=Georgia;fontSize=25;" parent="1" vertex="1">
          <mxGeometry x="-175" y="127.5" width="90" height="40" as="geometry" />
        </mxCell>
        <mxCell id="uB8tlWbp-hNkUQO73xYv-51" value="" style="endArrow=none;dashed=1;html=1;strokeWidth=6;fontFamily=Georgia;fontSize=25;" parent="1" edge="1">
          <mxGeometry width="50" height="50" relative="1" as="geometry">
            <mxPoint x="-480" y="1220" as="sourcePoint" />
            <mxPoint x="1926.6666666666667" y="1220" as="targetPoint" />
          </mxGeometry>
        </mxCell>
        <mxCell id="oKtELSS2n7N4R0TemBai-12" value="&lt;font style=&quot;font-size: 25px;&quot;&gt;&lt;b style=&quot;font-size: 25px;&quot;&gt;&lt;font style=&quot;font-size: 25px;&quot;&gt;MATα&lt;/font&gt;&lt;/b&gt;&lt;/font&gt;" style="text;html=1;align=center;verticalAlign=middle;resizable=0;points=[];autosize=1;fontFamily=Georgia;fontSize=25;" parent="1" vertex="1">
          <mxGeometry x="1020" y="117.5" width="90" height="40" as="geometry" />
        </mxCell>
        <mxCell id="oKtELSS2n7N4R0TemBai-13" value="&lt;b&gt;&lt;font style=&quot;font-size: 25px&quot;&gt;X&lt;/font&gt;&lt;/b&gt;" style="text;html=1;align=center;verticalAlign=middle;resizable=0;points=[];autosize=1;fontFamily=Georgia;fontSize=25;" parent="1" vertex="1">
          <mxGeometry x="1289" y="116" width="40" height="40" as="geometry" />
        </mxCell>
        <mxCell id="oKtELSS2n7N4R0TemBai-14" value="" style="ellipse;whiteSpace=wrap;html=1;aspect=fixed;strokeColor=#2D7600;fontColor=#ffffff;fillColor=#60A917;fontFamily=Georgia;fontSize=25;" parent="1" vertex="1">
          <mxGeometry x="1410" y="45" width="30" height="30" as="geometry" />
        </mxCell>
        <mxCell id="oKtELSS2n7N4R0TemBai-15" value="" style="ellipse;whiteSpace=wrap;html=1;aspect=fixed;strokeColor=#2D7600;fontColor=#ffffff;fillColor=#7EDE1E;fontFamily=Georgia;fontSize=25;" parent="1" vertex="1">
          <mxGeometry x="1410" y="125" width="30" height="30" as="geometry" />
        </mxCell>
        <mxCell id="oKtELSS2n7N4R0TemBai-16" value="" style="ellipse;whiteSpace=wrap;html=1;aspect=fixed;strokeColor=#2D7600;fontColor=#ffffff;fillColor=#549414;fontFamily=Georgia;fontSize=25;" parent="1" vertex="1">
          <mxGeometry x="1410" y="85" width="30" height="30" as="geometry" />
        </mxCell>
        <mxCell id="oKtELSS2n7N4R0TemBai-17" value="" style="ellipse;whiteSpace=wrap;html=1;aspect=fixed;strokeColor=#2D7600;fontColor=#ffffff;fillColor=#274509;fontFamily=Georgia;fontSize=25;" parent="1" vertex="1">
          <mxGeometry x="1450" y="45" width="30" height="30" as="geometry" />
        </mxCell>
        <mxCell id="oKtELSS2n7N4R0TemBai-18" value="" style="ellipse;whiteSpace=wrap;html=1;aspect=fixed;fillColor=#60a917;strokeColor=#2D7600;fontColor=#ffffff;fontFamily=Georgia;fontSize=25;" parent="1" vertex="1">
          <mxGeometry x="1450" y="85" width="30" height="30" as="geometry" />
        </mxCell>
        <mxCell id="oKtELSS2n7N4R0TemBai-19" value="" style="ellipse;whiteSpace=wrap;html=1;aspect=fixed;fillColor=#60a917;strokeColor=#2D7600;fontColor=#ffffff;fontFamily=Georgia;fontSize=25;" parent="1" vertex="1">
          <mxGeometry x="1490" y="45" width="30" height="30" as="geometry" />
        </mxCell>
        <mxCell id="oKtELSS2n7N4R0TemBai-20" value="" style="ellipse;whiteSpace=wrap;html=1;aspect=fixed;strokeColor=#2D7600;fontColor=#ffffff;fillColor=#76CF1C;fontFamily=Georgia;fontSize=25;" parent="1" vertex="1">
          <mxGeometry x="1490" y="85" width="30" height="30" as="geometry" />
        </mxCell>
        <mxCell id="oKtELSS2n7N4R0TemBai-21" value="" style="ellipse;whiteSpace=wrap;html=1;aspect=fixed;strokeColor=#2D7600;fontColor=#ffffff;fillColor=#81E31F;fontFamily=Georgia;fontSize=25;" parent="1" vertex="1">
          <mxGeometry x="1570" y="45" width="30" height="30" as="geometry" />
        </mxCell>
        <mxCell id="oKtELSS2n7N4R0TemBai-22" value="" style="ellipse;whiteSpace=wrap;html=1;aspect=fixed;strokeColor=#2D7600;fontColor=#ffffff;fillColor=#1C3807;fontFamily=Georgia;fontSize=25;" parent="1" vertex="1">
          <mxGeometry x="1530" y="85" width="30" height="30" as="geometry" />
        </mxCell>
        <mxCell id="oKtELSS2n7N4R0TemBai-23" value="" style="ellipse;whiteSpace=wrap;html=1;aspect=fixed;strokeColor=#2D7600;fontColor=#ffffff;fillColor=#3B690E;fontFamily=Georgia;fontSize=25;" parent="1" vertex="1">
          <mxGeometry x="1450" y="125" width="30" height="30" as="geometry" />
        </mxCell>
        <mxCell id="oKtELSS2n7N4R0TemBai-24" value="" style="ellipse;whiteSpace=wrap;html=1;aspect=fixed;strokeColor=#2D7600;fontColor=#ffffff;fillColor=#60A818;fontFamily=Georgia;fontSize=25;" parent="1" vertex="1">
          <mxGeometry x="1490" y="125" width="30" height="30" as="geometry" />
        </mxCell>
        <mxCell id="oKtELSS2n7N4R0TemBai-25" value="" style="ellipse;whiteSpace=wrap;html=1;aspect=fixed;fillColor=#60a917;strokeColor=#2D7600;fontColor=#ffffff;fontFamily=Georgia;fontSize=25;" parent="1" vertex="1">
          <mxGeometry x="1530" y="125" width="30" height="30" as="geometry" />
        </mxCell>
        <mxCell id="oKtELSS2n7N4R0TemBai-26" value="" style="ellipse;whiteSpace=wrap;html=1;aspect=fixed;strokeColor=#2D7600;fontColor=#ffffff;fillColor=#40700F;fontFamily=Georgia;fontSize=25;" parent="1" vertex="1">
          <mxGeometry x="1530" y="125" width="30" height="30" as="geometry" />
        </mxCell>
        <mxCell id="oKtELSS2n7N4R0TemBai-27" value="" style="ellipse;whiteSpace=wrap;html=1;aspect=fixed;fillColor=#60a917;strokeColor=#2D7600;fontColor=#ffffff;fontFamily=Georgia;fontSize=25;" parent="1" vertex="1">
          <mxGeometry x="1570" y="125" width="30" height="30" as="geometry" />
        </mxCell>
        <mxCell id="oKtELSS2n7N4R0TemBai-28" value="" style="ellipse;whiteSpace=wrap;html=1;aspect=fixed;strokeColor=#2D7600;fontColor=#ffffff;fillColor=#447810;fontFamily=Georgia;fontSize=25;" parent="1" vertex="1">
          <mxGeometry x="1570" y="85" width="30" height="30" as="geometry" />
        </mxCell>
        <mxCell id="oKtELSS2n7N4R0TemBai-29" value="" style="ellipse;whiteSpace=wrap;html=1;aspect=fixed;strokeColor=#2D7600;fontColor=#ffffff;fillColor=#417310;fontFamily=Georgia;fontSize=25;" parent="1" vertex="1">
          <mxGeometry x="1530" y="45" width="30" height="30" as="geometry" />
        </mxCell>
        <mxCell id="oKtELSS2n7N4R0TemBai-31" value="&lt;font style=&quot;font-size: 25px;&quot;&gt;&lt;b style=&quot;font-size: 25px;&quot;&gt;&lt;font style=&quot;font-size: 25px;&quot;&gt;Yeast GFP Library&lt;br style=&quot;font-size: 25px;&quot;&gt;ORF-GFP::His3&lt;/font&gt;&lt;/b&gt;&lt;/font&gt;" style="text;html=1;align=center;verticalAlign=middle;resizable=0;points=[];autosize=1;fontFamily=Georgia;fontSize=25;" parent="1" vertex="1">
          <mxGeometry x="1378" y="170" width="250" height="70" as="geometry" />
        </mxCell>
        <mxCell id="oKtELSS2n7N4R0TemBai-32" value="&lt;font style=&quot;font-size: 25px;&quot;&gt;&lt;b style=&quot;font-size: 25px;&quot;&gt;&lt;font style=&quot;font-size: 25px;&quot;&gt;MATa&lt;/font&gt;&lt;/b&gt;&lt;/font&gt;" style="text;html=1;align=center;verticalAlign=middle;resizable=0;points=[];autosize=1;fontFamily=Georgia;fontSize=25;" parent="1" vertex="1">
          <mxGeometry x="1950" y="128" width="90" height="40" as="geometry" />
        </mxCell>
        <mxCell id="oKtELSS2n7N4R0TemBai-34" value="" style="endArrow=classic;html=1;strokeWidth=1;fontFamily=Georgia;fontSize=25;" parent="1" edge="1">
          <mxGeometry width="50" height="50" relative="1" as="geometry">
            <mxPoint x="1310" y="201.25" as="sourcePoint" />
            <mxPoint x="1310.42" y="338.75" as="targetPoint" />
          </mxGeometry>
        </mxCell>
        <mxCell id="oKtELSS2n7N4R0TemBai-35" value="&lt;font style=&quot;font-size: 25px;&quot;&gt;&lt;b style=&quot;font-size: 25px;&quot;&gt;&lt;font style=&quot;font-size: 25px;&quot;&gt;Mating&lt;/font&gt;&lt;/b&gt;&lt;/font&gt;" style="text;html=1;align=center;verticalAlign=middle;resizable=0;points=[];autosize=1;fontFamily=Georgia;fontSize=25;" parent="1" vertex="1">
          <mxGeometry x="1448" y="270" width="110" height="40" as="geometry" />
        </mxCell>
        <mxCell id="oKtELSS2n7N4R0TemBai-36" value="&lt;font style=&quot;font-size: 25px;&quot;&gt;&lt;b style=&quot;font-size: 25px;&quot;&gt;&lt;font style=&quot;font-size: 25px;&quot;&gt;Y187&lt;/font&gt;&lt;/b&gt;&lt;/font&gt;" style="text;html=1;align=center;verticalAlign=middle;resizable=0;points=[];autosize=1;fontFamily=Georgia;fontSize=25;" parent="1" vertex="1">
          <mxGeometry x="1120" y="180" width="80" height="40" as="geometry" />
        </mxCell>
        <mxCell id="oKtELSS2n7N4R0TemBai-37" value="" style="rounded=0;whiteSpace=wrap;html=1;fillColor=#E6E6E6;fontFamily=Georgia;fontSize=25;" parent="1" vertex="1">
          <mxGeometry x="1205" y="355.62" width="220" height="140" as="geometry" />
        </mxCell>
        <mxCell id="oKtELSS2n7N4R0TemBai-38" value="" style="ellipse;whiteSpace=wrap;html=1;aspect=fixed;strokeColor=#2D7600;fontColor=#ffffff;fillColor=#60A917;fontFamily=Georgia;fontSize=25;" parent="1" vertex="1">
          <mxGeometry x="1220" y="370.62" width="30" height="30" as="geometry" />
        </mxCell>
        <mxCell id="oKtELSS2n7N4R0TemBai-39" value="" style="ellipse;whiteSpace=wrap;html=1;aspect=fixed;strokeColor=#2D7600;fontColor=#ffffff;fillColor=#7EDE1E;fontFamily=Georgia;fontSize=25;" parent="1" vertex="1">
          <mxGeometry x="1220" y="450.62" width="30" height="30" as="geometry" />
        </mxCell>
        <mxCell id="oKtELSS2n7N4R0TemBai-40" value="" style="ellipse;whiteSpace=wrap;html=1;aspect=fixed;strokeColor=#2D7600;fontColor=#ffffff;fillColor=#549414;fontFamily=Georgia;fontSize=25;" parent="1" vertex="1">
          <mxGeometry x="1220" y="410.62" width="30" height="30" as="geometry" />
        </mxCell>
        <mxCell id="oKtELSS2n7N4R0TemBai-41" value="" style="ellipse;whiteSpace=wrap;html=1;aspect=fixed;strokeColor=#2D7600;fontColor=#ffffff;fillColor=#274509;fontFamily=Georgia;fontSize=25;" parent="1" vertex="1">
          <mxGeometry x="1260" y="370.62" width="30" height="30" as="geometry" />
        </mxCell>
        <mxCell id="oKtELSS2n7N4R0TemBai-42" value="" style="ellipse;whiteSpace=wrap;html=1;aspect=fixed;fillColor=#60a917;strokeColor=#2D7600;fontColor=#ffffff;fontFamily=Georgia;fontSize=25;" parent="1" vertex="1">
          <mxGeometry x="1260" y="410.62" width="30" height="30" as="geometry" />
        </mxCell>
        <mxCell id="oKtELSS2n7N4R0TemBai-43" value="" style="ellipse;whiteSpace=wrap;html=1;aspect=fixed;fillColor=#60a917;strokeColor=#2D7600;fontColor=#ffffff;fontFamily=Georgia;fontSize=25;" parent="1" vertex="1">
          <mxGeometry x="1300" y="370.62" width="30" height="30" as="geometry" />
        </mxCell>
        <mxCell id="oKtELSS2n7N4R0TemBai-44" value="" style="ellipse;whiteSpace=wrap;html=1;aspect=fixed;strokeColor=#2D7600;fontColor=#ffffff;fillColor=#76CF1C;fontFamily=Georgia;fontSize=25;" parent="1" vertex="1">
          <mxGeometry x="1300" y="410.62" width="30" height="30" as="geometry" />
        </mxCell>
        <mxCell id="oKtELSS2n7N4R0TemBai-46" value="" style="ellipse;whiteSpace=wrap;html=1;aspect=fixed;strokeColor=#2D7600;fontColor=#ffffff;fillColor=#1C3807;fontFamily=Georgia;fontSize=25;" parent="1" vertex="1">
          <mxGeometry x="1340" y="410.62" width="30" height="30" as="geometry" />
        </mxCell>
        <mxCell id="oKtELSS2n7N4R0TemBai-47" value="" style="ellipse;whiteSpace=wrap;html=1;aspect=fixed;strokeColor=#2D7600;fontColor=#ffffff;fillColor=#3B690E;fontFamily=Georgia;fontSize=25;" parent="1" vertex="1">
          <mxGeometry x="1260" y="450.62" width="30" height="30" as="geometry" />
        </mxCell>
        <mxCell id="oKtELSS2n7N4R0TemBai-48" value="" style="ellipse;whiteSpace=wrap;html=1;aspect=fixed;strokeColor=#2D7600;fontColor=#ffffff;fillColor=#60A818;fontFamily=Georgia;fontSize=25;" parent="1" vertex="1">
          <mxGeometry x="1300" y="450.62" width="30" height="30" as="geometry" />
        </mxCell>
        <mxCell id="oKtELSS2n7N4R0TemBai-49" value="" style="ellipse;whiteSpace=wrap;html=1;aspect=fixed;fillColor=#60a917;strokeColor=#2D7600;fontColor=#ffffff;fontFamily=Georgia;fontSize=25;" parent="1" vertex="1">
          <mxGeometry x="1340" y="450.62" width="30" height="30" as="geometry" />
        </mxCell>
        <mxCell id="oKtELSS2n7N4R0TemBai-52" value="" style="ellipse;whiteSpace=wrap;html=1;aspect=fixed;strokeColor=#2D7600;fontColor=#ffffff;fillColor=#447810;fontFamily=Georgia;fontSize=25;" parent="1" vertex="1">
          <mxGeometry x="1380" y="410.62" width="30" height="30" as="geometry" />
        </mxCell>
        <mxCell id="oKtELSS2n7N4R0TemBai-54" value="" style="rounded=0;whiteSpace=wrap;html=1;fillColor=#E6E6E6;fontFamily=Georgia;fontSize=25;" parent="1" vertex="1">
          <mxGeometry x="1205" y="710" width="220" height="140" as="geometry" />
        </mxCell>
        <mxCell id="oKtELSS2n7N4R0TemBai-55" value="" style="ellipse;whiteSpace=wrap;html=1;aspect=fixed;strokeColor=#2D7600;fontColor=#ffffff;fillColor=#60A917;fontFamily=Georgia;fontSize=25;" parent="1" vertex="1">
          <mxGeometry x="1220" y="725" width="30" height="30" as="geometry" />
        </mxCell>
        <mxCell id="oKtELSS2n7N4R0TemBai-56" value="" style="ellipse;whiteSpace=wrap;html=1;aspect=fixed;fontColor=#ffffff;fillColor=#B3B3B3;fontFamily=Georgia;fontSize=25;" parent="1" vertex="1">
          <mxGeometry x="1220" y="805" width="30" height="30" as="geometry" />
        </mxCell>
        <mxCell id="oKtELSS2n7N4R0TemBai-57" value="" style="ellipse;whiteSpace=wrap;html=1;aspect=fixed;strokeColor=#2D7600;fontColor=#ffffff;fillColor=#549414;fontFamily=Georgia;fontSize=25;" parent="1" vertex="1">
          <mxGeometry x="1220" y="765" width="30" height="30" as="geometry" />
        </mxCell>
        <mxCell id="oKtELSS2n7N4R0TemBai-58" value="" style="ellipse;whiteSpace=wrap;html=1;aspect=fixed;strokeColor=#2D7600;fontColor=#ffffff;fillColor=#274509;fontFamily=Georgia;fontSize=25;" parent="1" vertex="1">
          <mxGeometry x="1260" y="725" width="30" height="30" as="geometry" />
        </mxCell>
        <mxCell id="oKtELSS2n7N4R0TemBai-59" value="" style="ellipse;whiteSpace=wrap;html=1;aspect=fixed;fillColor=#60a917;strokeColor=#2D7600;fontColor=#ffffff;fontFamily=Georgia;fontSize=25;" parent="1" vertex="1">
          <mxGeometry x="1260" y="765" width="30" height="30" as="geometry" />
        </mxCell>
        <mxCell id="oKtELSS2n7N4R0TemBai-60" value="" style="ellipse;whiteSpace=wrap;html=1;aspect=fixed;fillColor=#60a917;strokeColor=#2D7600;fontColor=#ffffff;fontFamily=Georgia;fontSize=25;" parent="1" vertex="1">
          <mxGeometry x="1300" y="725" width="30" height="30" as="geometry" />
        </mxCell>
        <mxCell id="oKtELSS2n7N4R0TemBai-61" value="" style="ellipse;whiteSpace=wrap;html=1;aspect=fixed;strokeColor=#2D7600;fontColor=#ffffff;fillColor=#76CF1C;fontFamily=Georgia;fontSize=25;" parent="1" vertex="1">
          <mxGeometry x="1300" y="765" width="30" height="30" as="geometry" />
        </mxCell>
        <mxCell id="oKtELSS2n7N4R0TemBai-62" value="" style="ellipse;whiteSpace=wrap;html=1;aspect=fixed;strokeColor=#2D7600;fontColor=#ffffff;fillColor=#81E31F;fontFamily=Georgia;fontSize=25;" parent="1" vertex="1">
          <mxGeometry x="1380" y="725" width="30" height="30" as="geometry" />
        </mxCell>
        <mxCell id="oKtELSS2n7N4R0TemBai-63" value="" style="ellipse;whiteSpace=wrap;html=1;aspect=fixed;strokeColor=#2D7600;fontColor=#ffffff;fillColor=#1C3807;fontFamily=Georgia;fontSize=25;" parent="1" vertex="1">
          <mxGeometry x="1340" y="765" width="30" height="30" as="geometry" />
        </mxCell>
        <mxCell id="oKtELSS2n7N4R0TemBai-64" value="" style="ellipse;whiteSpace=wrap;html=1;aspect=fixed;strokeColor=#2D7600;fontColor=#ffffff;fillColor=#3B690E;fontFamily=Georgia;fontSize=25;" parent="1" vertex="1">
          <mxGeometry x="1260" y="805" width="30" height="30" as="geometry" />
        </mxCell>
        <mxCell id="oKtELSS2n7N4R0TemBai-65" value="" style="ellipse;whiteSpace=wrap;html=1;aspect=fixed;strokeColor=#2D7600;fontColor=#ffffff;fillColor=#60A818;fontFamily=Georgia;fontSize=25;" parent="1" vertex="1">
          <mxGeometry x="1300" y="805" width="30" height="30" as="geometry" />
        </mxCell>
        <mxCell id="oKtELSS2n7N4R0TemBai-66" value="" style="ellipse;whiteSpace=wrap;html=1;aspect=fixed;fillColor=#60a917;strokeColor=#2D7600;fontColor=#ffffff;fontFamily=Georgia;fontSize=25;" parent="1" vertex="1">
          <mxGeometry x="1340" y="805" width="30" height="30" as="geometry" />
        </mxCell>
        <mxCell id="oKtELSS2n7N4R0TemBai-67" value="" style="ellipse;whiteSpace=wrap;html=1;aspect=fixed;strokeColor=#2D7600;fontColor=#ffffff;fillColor=#40700F;fontFamily=Georgia;fontSize=25;" parent="1" vertex="1">
          <mxGeometry x="1340" y="805" width="30" height="30" as="geometry" />
        </mxCell>
        <mxCell id="oKtELSS2n7N4R0TemBai-68" value="" style="ellipse;whiteSpace=wrap;html=1;aspect=fixed;fillColor=#60a917;strokeColor=#2D7600;fontColor=#ffffff;fontFamily=Georgia;fontSize=25;" parent="1" vertex="1">
          <mxGeometry x="1380" y="805" width="30" height="30" as="geometry" />
        </mxCell>
        <mxCell id="oKtELSS2n7N4R0TemBai-69" value="" style="ellipse;whiteSpace=wrap;html=1;aspect=fixed;strokeColor=#2D7600;fontColor=#ffffff;fillColor=#447810;fontFamily=Georgia;fontSize=25;" parent="1" vertex="1">
          <mxGeometry x="1380" y="765" width="30" height="30" as="geometry" />
        </mxCell>
        <mxCell id="oKtELSS2n7N4R0TemBai-70" value="" style="ellipse;whiteSpace=wrap;html=1;aspect=fixed;strokeColor=#2D7600;fontColor=#ffffff;fillColor=#417310;fontFamily=Georgia;fontSize=25;" parent="1" vertex="1">
          <mxGeometry x="1340" y="725" width="30" height="30" as="geometry" />
        </mxCell>
        <mxCell id="oKtELSS2n7N4R0TemBai-73" value="" style="ellipse;whiteSpace=wrap;html=1;aspect=fixed;fontColor=#ffffff;fillColor=#B3B3B3;fontFamily=Georgia;fontSize=25;" parent="1" vertex="1">
          <mxGeometry x="1300" y="725" width="30" height="30" as="geometry" />
        </mxCell>
        <mxCell id="oKtELSS2n7N4R0TemBai-74" value="" style="ellipse;whiteSpace=wrap;html=1;aspect=fixed;fontColor=#ffffff;fillColor=#B3B3B3;fontFamily=Georgia;fontSize=25;" parent="1" vertex="1">
          <mxGeometry x="1260" y="725" width="30" height="30" as="geometry" />
        </mxCell>
        <mxCell id="oKtELSS2n7N4R0TemBai-75" value="" style="ellipse;whiteSpace=wrap;html=1;aspect=fixed;fontColor=#ffffff;fillColor=#B3B3B3;fontFamily=Georgia;fontSize=25;" parent="1" vertex="1">
          <mxGeometry x="1220" y="725" width="30" height="30" as="geometry" />
        </mxCell>
        <mxCell id="oKtELSS2n7N4R0TemBai-76" value="" style="ellipse;whiteSpace=wrap;html=1;aspect=fixed;fontColor=#ffffff;fillColor=#B3B3B3;fontFamily=Georgia;fontSize=25;" parent="1" vertex="1">
          <mxGeometry x="1220" y="765" width="30" height="30" as="geometry" />
        </mxCell>
        <mxCell id="oKtELSS2n7N4R0TemBai-77" value="" style="ellipse;whiteSpace=wrap;html=1;aspect=fixed;fontColor=#ffffff;fillColor=#B3B3B3;fontFamily=Georgia;fontSize=25;" parent="1" vertex="1">
          <mxGeometry x="1260" y="765" width="30" height="30" as="geometry" />
        </mxCell>
        <mxCell id="oKtELSS2n7N4R0TemBai-78" value="" style="ellipse;whiteSpace=wrap;html=1;aspect=fixed;fontColor=#ffffff;fillColor=#B3B3B3;fontFamily=Georgia;fontSize=25;" parent="1" vertex="1">
          <mxGeometry x="1300" y="765" width="30" height="30" as="geometry" />
        </mxCell>
        <mxCell id="oKtELSS2n7N4R0TemBai-79" value="" style="ellipse;whiteSpace=wrap;html=1;aspect=fixed;fontColor=#ffffff;fillColor=#B3B3B3;fontFamily=Georgia;fontSize=25;" parent="1" vertex="1">
          <mxGeometry x="1340" y="765" width="30" height="30" as="geometry" />
        </mxCell>
        <mxCell id="oKtELSS2n7N4R0TemBai-80" value="" style="ellipse;whiteSpace=wrap;html=1;aspect=fixed;fontColor=#ffffff;fillColor=#B3B3B3;fontFamily=Georgia;fontSize=25;" parent="1" vertex="1">
          <mxGeometry x="1380" y="765" width="30" height="30" as="geometry" />
        </mxCell>
        <mxCell id="oKtELSS2n7N4R0TemBai-81" value="" style="ellipse;whiteSpace=wrap;html=1;aspect=fixed;fontColor=#ffffff;fillColor=#B3B3B3;fontFamily=Georgia;fontSize=25;" parent="1" vertex="1">
          <mxGeometry x="1380" y="805" width="30" height="30" as="geometry" />
        </mxCell>
        <mxCell id="oKtELSS2n7N4R0TemBai-82" value="" style="ellipse;whiteSpace=wrap;html=1;aspect=fixed;fontColor=#ffffff;fillColor=#B3B3B3;fontFamily=Georgia;fontSize=25;" parent="1" vertex="1">
          <mxGeometry x="1340" y="805" width="30" height="30" as="geometry" />
        </mxCell>
        <mxCell id="oKtELSS2n7N4R0TemBai-83" value="" style="ellipse;whiteSpace=wrap;html=1;aspect=fixed;fontColor=#ffffff;fillColor=#B3B3B3;fontFamily=Georgia;fontSize=25;" parent="1" vertex="1">
          <mxGeometry x="1300" y="805" width="30" height="30" as="geometry" />
        </mxCell>
        <mxCell id="oKtELSS2n7N4R0TemBai-84" value="" style="ellipse;whiteSpace=wrap;html=1;aspect=fixed;fontColor=#ffffff;fillColor=#B3B3B3;fontFamily=Georgia;fontSize=25;" parent="1" vertex="1">
          <mxGeometry x="1260" y="805" width="30" height="30" as="geometry" />
        </mxCell>
        <mxCell id="oKtELSS2n7N4R0TemBai-85" value="&lt;font style=&quot;font-size: 25px;&quot;&gt;&lt;b style=&quot;font-size: 25px;&quot;&gt;&lt;font style=&quot;font-size: 25px;&quot;&gt;Diploid&lt;br style=&quot;font-size: 25px;&quot;&gt;Y187 - (Yeast GFP Library &amp;amp; DNA-damage sensors)&lt;br style=&quot;font-size: 25px;&quot;&gt;&lt;/font&gt;&lt;/b&gt;&lt;/font&gt;" style="text;html=1;align=center;verticalAlign=middle;resizable=0;points=[];autosize=1;fontFamily=Georgia;fontSize=25;" parent="1" vertex="1">
          <mxGeometry x="440" y="384.99999999999994" width="660" height="70" as="geometry" />
        </mxCell>
        <mxCell id="oKtELSS2n7N4R0TemBai-88" value="&lt;font style=&quot;font-size: 25px;&quot;&gt;&lt;b style=&quot;font-size: 25px;&quot;&gt;&lt;font style=&quot;font-size: 25px;&quot;&gt;Sporulation&lt;/font&gt;&lt;/b&gt;&lt;/font&gt;" style="text;html=1;align=center;verticalAlign=middle;resizable=0;points=[];autosize=1;fontFamily=Georgia;fontSize=25;" parent="1" vertex="1">
          <mxGeometry x="1450" y="570" width="170" height="40" as="geometry" />
        </mxCell>
        <mxCell id="oKtELSS2n7N4R0TemBai-90" value="" style="ellipse;whiteSpace=wrap;html=1;aspect=fixed;strokeColor=#2D7600;fontColor=#ffffff;fillColor=#60A917;fontFamily=Georgia;fontSize=25;" parent="1" vertex="1">
          <mxGeometry x="1220" y="1035" width="30" height="30" as="geometry" />
        </mxCell>
        <mxCell id="oKtELSS2n7N4R0TemBai-92" value="" style="ellipse;whiteSpace=wrap;html=1;aspect=fixed;strokeColor=#2D7600;fontColor=#ffffff;fillColor=#549414;fontFamily=Georgia;fontSize=25;" parent="1" vertex="1">
          <mxGeometry x="1220" y="1075" width="30" height="30" as="geometry" />
        </mxCell>
        <mxCell id="oKtELSS2n7N4R0TemBai-93" value="" style="ellipse;whiteSpace=wrap;html=1;aspect=fixed;strokeColor=#2D7600;fontColor=#ffffff;fillColor=#274509;fontFamily=Georgia;fontSize=25;" parent="1" vertex="1">
          <mxGeometry x="1260" y="1035" width="30" height="30" as="geometry" />
        </mxCell>
        <mxCell id="oKtELSS2n7N4R0TemBai-95" value="" style="ellipse;whiteSpace=wrap;html=1;aspect=fixed;fillColor=#60a917;strokeColor=#2D7600;fontColor=#ffffff;fontFamily=Georgia;fontSize=25;" parent="1" vertex="1">
          <mxGeometry x="1300" y="1035" width="30" height="30" as="geometry" />
        </mxCell>
        <mxCell id="oKtELSS2n7N4R0TemBai-97" value="" style="ellipse;whiteSpace=wrap;html=1;aspect=fixed;strokeColor=#2D7600;fontColor=#ffffff;fillColor=#81E31F;fontFamily=Georgia;fontSize=25;" parent="1" vertex="1">
          <mxGeometry x="1380" y="1035" width="30" height="30" as="geometry" />
        </mxCell>
        <mxCell id="oKtELSS2n7N4R0TemBai-105" value="" style="ellipse;whiteSpace=wrap;html=1;aspect=fixed;strokeColor=#2D7600;fontColor=#ffffff;fillColor=#417310;fontFamily=Georgia;fontSize=25;" parent="1" vertex="1">
          <mxGeometry x="1340" y="1035" width="30" height="30" as="geometry" />
        </mxCell>
        <mxCell id="oKtELSS2n7N4R0TemBai-106" value="" style="ellipse;whiteSpace=wrap;html=1;aspect=fixed;fontColor=#ffffff;fillColor=#B3B3B3;fontFamily=Georgia;fontSize=25;" parent="1" vertex="1">
          <mxGeometry x="1380" y="1035" width="30" height="30" as="geometry" />
        </mxCell>
        <mxCell id="oKtELSS2n7N4R0TemBai-107" value="" style="ellipse;whiteSpace=wrap;html=1;aspect=fixed;fontColor=#ffffff;fillColor=#B3B3B3;fontFamily=Georgia;fontSize=25;" parent="1" vertex="1">
          <mxGeometry x="1340" y="1035" width="30" height="30" as="geometry" />
        </mxCell>
        <mxCell id="oKtELSS2n7N4R0TemBai-108" value="" style="ellipse;whiteSpace=wrap;html=1;aspect=fixed;fontColor=#ffffff;fillColor=#B3B3B3;fontFamily=Georgia;fontSize=25;" parent="1" vertex="1">
          <mxGeometry x="1300" y="1035" width="30" height="30" as="geometry" />
        </mxCell>
        <mxCell id="oKtELSS2n7N4R0TemBai-109" value="" style="ellipse;whiteSpace=wrap;html=1;aspect=fixed;fontColor=#ffffff;fillColor=#B3B3B3;fontFamily=Georgia;fontSize=25;" parent="1" vertex="1">
          <mxGeometry x="1260" y="1035" width="30" height="30" as="geometry" />
        </mxCell>
        <mxCell id="oKtELSS2n7N4R0TemBai-121" value="" style="rounded=0;whiteSpace=wrap;html=1;strokeColor=#000000;fillColor=#FFFFFF;fontFamily=Georgia;fontSize=25;" parent="1" vertex="1">
          <mxGeometry x="1218" y="1033" width="34" height="34" as="geometry" />
        </mxCell>
        <mxCell id="oKtELSS2n7N4R0TemBai-110" value="" style="ellipse;whiteSpace=wrap;html=1;aspect=fixed;fontColor=#ffffff;fillColor=#B3B3B3;fontFamily=Georgia;fontSize=25;" parent="1" vertex="1">
          <mxGeometry x="1220" y="1035" width="30" height="30" as="geometry" />
        </mxCell>
        <mxCell id="oKtELSS2n7N4R0TemBai-123" value="" style="ellipse;whiteSpace=wrap;html=1;aspect=fixed;fontColor=#ffffff;fillColor=#B3B3B3;fontFamily=Georgia;fontSize=25;" parent="1" vertex="1">
          <mxGeometry x="1260" y="1035" width="30" height="30" as="geometry" />
        </mxCell>
        <mxCell id="oKtELSS2n7N4R0TemBai-124" value="" style="ellipse;whiteSpace=wrap;html=1;aspect=fixed;fontColor=#ffffff;fillColor=#B3B3B3;fontFamily=Georgia;fontSize=25;" parent="1" vertex="1">
          <mxGeometry x="1300" y="1035" width="30" height="30" as="geometry" />
        </mxCell>
        <mxCell id="oKtELSS2n7N4R0TemBai-125" value="" style="ellipse;whiteSpace=wrap;html=1;aspect=fixed;fontColor=#ffffff;fillColor=#B3B3B3;fontFamily=Georgia;fontSize=25;" parent="1" vertex="1">
          <mxGeometry x="1340" y="1035" width="30" height="30" as="geometry" />
        </mxCell>
        <mxCell id="oKtELSS2n7N4R0TemBai-126" value="" style="ellipse;whiteSpace=wrap;html=1;aspect=fixed;fontColor=#ffffff;fillColor=#B3B3B3;fontFamily=Georgia;fontSize=25;" parent="1" vertex="1">
          <mxGeometry x="1380" y="1035" width="30" height="30" as="geometry" />
        </mxCell>
        <mxCell id="oKtELSS2n7N4R0TemBai-127" value="" style="ellipse;whiteSpace=wrap;html=1;aspect=fixed;fontColor=#ffffff;fillColor=#B3B3B3;fontFamily=Georgia;fontSize=25;" parent="1" vertex="1">
          <mxGeometry x="1260" y="1035" width="30" height="30" as="geometry" />
        </mxCell>
        <mxCell id="oKtELSS2n7N4R0TemBai-128" value="" style="ellipse;whiteSpace=wrap;html=1;aspect=fixed;fontColor=#ffffff;fillColor=#B3B3B3;fontFamily=Georgia;fontSize=25;" parent="1" vertex="1">
          <mxGeometry x="1300" y="1035" width="30" height="30" as="geometry" />
        </mxCell>
        <mxCell id="oKtELSS2n7N4R0TemBai-129" value="" style="ellipse;whiteSpace=wrap;html=1;aspect=fixed;fontColor=#ffffff;fillColor=#B3B3B3;fontFamily=Georgia;fontSize=25;" parent="1" vertex="1">
          <mxGeometry x="1340" y="1035" width="30" height="30" as="geometry" />
        </mxCell>
        <mxCell id="oKtELSS2n7N4R0TemBai-130" value="" style="ellipse;whiteSpace=wrap;html=1;aspect=fixed;fontColor=#ffffff;fillColor=#B3B3B3;fontFamily=Georgia;fontSize=25;" parent="1" vertex="1">
          <mxGeometry x="1380" y="1035" width="30" height="30" as="geometry" />
        </mxCell>
        <mxCell id="oKtELSS2n7N4R0TemBai-144" value="" style="rounded=0;whiteSpace=wrap;html=1;strokeColor=#000000;fillColor=#FFFFFF;fontFamily=Georgia;fontSize=25;" parent="1" vertex="1">
          <mxGeometry x="1258" y="1033" width="34" height="34" as="geometry" />
        </mxCell>
        <mxCell id="oKtELSS2n7N4R0TemBai-133" value="" style="ellipse;whiteSpace=wrap;html=1;aspect=fixed;fontColor=#ffffff;fillColor=#B3B3B3;fontFamily=Georgia;fontSize=25;" parent="1" vertex="1">
          <mxGeometry x="1260" y="1035" width="30" height="30" as="geometry" />
        </mxCell>
        <mxCell id="oKtELSS2n7N4R0TemBai-145" value="" style="rounded=0;whiteSpace=wrap;html=1;strokeColor=#000000;fillColor=#FFFFFF;fontFamily=Georgia;fontSize=25;" parent="1" vertex="1">
          <mxGeometry x="1298" y="1033" width="34" height="34" as="geometry" />
        </mxCell>
        <mxCell id="oKtELSS2n7N4R0TemBai-134" value="" style="ellipse;whiteSpace=wrap;html=1;aspect=fixed;fontColor=#ffffff;fillColor=#B3B3B3;fontFamily=Georgia;fontSize=25;" parent="1" vertex="1">
          <mxGeometry x="1300" y="1035" width="30" height="30" as="geometry" />
        </mxCell>
        <mxCell id="oKtELSS2n7N4R0TemBai-147" value="" style="rounded=0;whiteSpace=wrap;html=1;strokeColor=#000000;fillColor=#FFFFFF;fontFamily=Georgia;fontSize=25;" parent="1" vertex="1">
          <mxGeometry x="1338" y="1033" width="34" height="34" as="geometry" />
        </mxCell>
        <mxCell id="oKtELSS2n7N4R0TemBai-135" value="" style="ellipse;whiteSpace=wrap;html=1;aspect=fixed;fontColor=#ffffff;fillColor=#B3B3B3;fontFamily=Georgia;fontSize=25;" parent="1" vertex="1">
          <mxGeometry x="1340" y="1035" width="30" height="30" as="geometry" />
        </mxCell>
        <mxCell id="oKtELSS2n7N4R0TemBai-148" value="" style="rounded=0;whiteSpace=wrap;html=1;strokeColor=#000000;fillColor=#FFFFFF;fontFamily=Georgia;fontSize=25;" parent="1" vertex="1">
          <mxGeometry x="1378" y="1033" width="34" height="34" as="geometry" />
        </mxCell>
        <mxCell id="oKtELSS2n7N4R0TemBai-136" value="" style="ellipse;whiteSpace=wrap;html=1;aspect=fixed;fontColor=#ffffff;fillColor=#B3B3B3;fontFamily=Georgia;fontSize=25;" parent="1" vertex="1">
          <mxGeometry x="1380" y="1035" width="30" height="30" as="geometry" />
        </mxCell>
        <mxCell id="oKtELSS2n7N4R0TemBai-149" value="" style="rounded=0;whiteSpace=wrap;html=1;strokeColor=#000000;fillColor=#FFFFFF;fontFamily=Georgia;fontSize=25;" parent="1" vertex="1">
          <mxGeometry x="1218" y="1073" width="34" height="34" as="geometry" />
        </mxCell>
        <mxCell id="oKtELSS2n7N4R0TemBai-111" value="" style="ellipse;whiteSpace=wrap;html=1;aspect=fixed;fontColor=#ffffff;fillColor=#B3B3B3;fontFamily=Georgia;fontSize=25;" parent="1" vertex="1">
          <mxGeometry x="1220" y="1075" width="30" height="30" as="geometry" />
        </mxCell>
        <mxCell id="oKtELSS2n7N4R0TemBai-150" value="" style="rounded=0;whiteSpace=wrap;html=1;strokeColor=#000000;fillColor=#FFFFFF;fontFamily=Georgia;fontSize=25;" parent="1" vertex="1">
          <mxGeometry x="1218" y="1113" width="34" height="34" as="geometry" />
        </mxCell>
        <mxCell id="oKtELSS2n7N4R0TemBai-91" value="" style="ellipse;whiteSpace=wrap;html=1;aspect=fixed;fontColor=#ffffff;fillColor=#B3B3B3;fontFamily=Georgia;fontSize=25;" parent="1" vertex="1">
          <mxGeometry x="1220" y="1115" width="30" height="30" as="geometry" />
        </mxCell>
        <mxCell id="oKtELSS2n7N4R0TemBai-155" value="" style="ellipse;whiteSpace=wrap;html=1;aspect=fixed;strokeColor=#2D7600;fontColor=#ffffff;fillColor=#549414;fontFamily=Georgia;fontSize=25;" parent="1" vertex="1">
          <mxGeometry x="1260" y="1075" width="30" height="30" as="geometry" />
        </mxCell>
        <mxCell id="oKtELSS2n7N4R0TemBai-156" value="" style="rounded=0;whiteSpace=wrap;html=1;strokeColor=#000000;fillColor=#FFFFFF;fontFamily=Georgia;fontSize=25;" parent="1" vertex="1">
          <mxGeometry x="1258" y="1073" width="34" height="34" as="geometry" />
        </mxCell>
        <mxCell id="oKtELSS2n7N4R0TemBai-157" value="" style="ellipse;whiteSpace=wrap;html=1;aspect=fixed;fontColor=#ffffff;fillColor=#B3B3B3;fontFamily=Georgia;fontSize=25;" parent="1" vertex="1">
          <mxGeometry x="1260" y="1075" width="30" height="30" as="geometry" />
        </mxCell>
        <mxCell id="oKtELSS2n7N4R0TemBai-158" value="" style="rounded=0;whiteSpace=wrap;html=1;strokeColor=#000000;fillColor=#FFFFFF;fontFamily=Georgia;fontSize=25;" parent="1" vertex="1">
          <mxGeometry x="1258" y="1113" width="34" height="34" as="geometry" />
        </mxCell>
        <mxCell id="oKtELSS2n7N4R0TemBai-159" value="" style="ellipse;whiteSpace=wrap;html=1;aspect=fixed;fontColor=#ffffff;fillColor=#B3B3B3;fontFamily=Georgia;fontSize=25;" parent="1" vertex="1">
          <mxGeometry x="1260" y="1115" width="30" height="30" as="geometry" />
        </mxCell>
        <mxCell id="oKtELSS2n7N4R0TemBai-160" value="" style="ellipse;whiteSpace=wrap;html=1;aspect=fixed;strokeColor=#2D7600;fontColor=#ffffff;fillColor=#549414;fontFamily=Georgia;fontSize=25;" parent="1" vertex="1">
          <mxGeometry x="1300" y="1075" width="30" height="30" as="geometry" />
        </mxCell>
        <mxCell id="oKtELSS2n7N4R0TemBai-161" value="" style="rounded=0;whiteSpace=wrap;html=1;strokeColor=#000000;fillColor=#FFFFFF;fontFamily=Georgia;fontSize=25;" parent="1" vertex="1">
          <mxGeometry x="1298" y="1073" width="34" height="34" as="geometry" />
        </mxCell>
        <mxCell id="oKtELSS2n7N4R0TemBai-162" value="" style="ellipse;whiteSpace=wrap;html=1;aspect=fixed;fontColor=#ffffff;fillColor=#B3B3B3;fontFamily=Georgia;fontSize=25;" parent="1" vertex="1">
          <mxGeometry x="1300" y="1075" width="30" height="30" as="geometry" />
        </mxCell>
        <mxCell id="oKtELSS2n7N4R0TemBai-163" value="" style="rounded=0;whiteSpace=wrap;html=1;strokeColor=#000000;fillColor=#FFFFFF;fontFamily=Georgia;fontSize=25;" parent="1" vertex="1">
          <mxGeometry x="1298" y="1113" width="34" height="34" as="geometry" />
        </mxCell>
        <mxCell id="oKtELSS2n7N4R0TemBai-164" value="" style="ellipse;whiteSpace=wrap;html=1;aspect=fixed;fontColor=#ffffff;fillColor=#B3B3B3;fontFamily=Georgia;fontSize=25;" parent="1" vertex="1">
          <mxGeometry x="1300" y="1115" width="30" height="30" as="geometry" />
        </mxCell>
        <mxCell id="oKtELSS2n7N4R0TemBai-165" value="" style="ellipse;whiteSpace=wrap;html=1;aspect=fixed;strokeColor=#2D7600;fontColor=#ffffff;fillColor=#549414;fontFamily=Georgia;fontSize=25;" parent="1" vertex="1">
          <mxGeometry x="1340" y="1075" width="30" height="30" as="geometry" />
        </mxCell>
        <mxCell id="oKtELSS2n7N4R0TemBai-166" value="" style="rounded=0;whiteSpace=wrap;html=1;strokeColor=#000000;fillColor=#FFFFFF;fontFamily=Georgia;fontSize=25;" parent="1" vertex="1">
          <mxGeometry x="1338" y="1073" width="34" height="34" as="geometry" />
        </mxCell>
        <mxCell id="oKtELSS2n7N4R0TemBai-167" value="" style="ellipse;whiteSpace=wrap;html=1;aspect=fixed;fontColor=#ffffff;fillColor=#B3B3B3;fontFamily=Georgia;fontSize=25;" parent="1" vertex="1">
          <mxGeometry x="1340" y="1075" width="30" height="30" as="geometry" />
        </mxCell>
        <mxCell id="oKtELSS2n7N4R0TemBai-168" value="" style="rounded=0;whiteSpace=wrap;html=1;strokeColor=#000000;fillColor=#FFFFFF;fontFamily=Georgia;fontSize=25;" parent="1" vertex="1">
          <mxGeometry x="1338" y="1113" width="34" height="34" as="geometry" />
        </mxCell>
        <mxCell id="oKtELSS2n7N4R0TemBai-169" value="" style="ellipse;whiteSpace=wrap;html=1;aspect=fixed;fontColor=#ffffff;fillColor=#B3B3B3;fontFamily=Georgia;fontSize=25;" parent="1" vertex="1">
          <mxGeometry x="1340" y="1115" width="30" height="30" as="geometry" />
        </mxCell>
        <mxCell id="oKtELSS2n7N4R0TemBai-170" value="" style="ellipse;whiteSpace=wrap;html=1;aspect=fixed;strokeColor=#2D7600;fontColor=#ffffff;fillColor=#549414;fontFamily=Georgia;fontSize=25;" parent="1" vertex="1">
          <mxGeometry x="1380" y="1075" width="30" height="30" as="geometry" />
        </mxCell>
        <mxCell id="oKtELSS2n7N4R0TemBai-171" value="" style="rounded=0;whiteSpace=wrap;html=1;strokeColor=#000000;fillColor=#FFFFFF;fontFamily=Georgia;fontSize=25;" parent="1" vertex="1">
          <mxGeometry x="1378" y="1073" width="34" height="34" as="geometry" />
        </mxCell>
        <mxCell id="oKtELSS2n7N4R0TemBai-172" value="" style="ellipse;whiteSpace=wrap;html=1;aspect=fixed;fontColor=#ffffff;fillColor=#B3B3B3;fontFamily=Georgia;fontSize=25;" parent="1" vertex="1">
          <mxGeometry x="1380" y="1075" width="30" height="30" as="geometry" />
        </mxCell>
        <mxCell id="oKtELSS2n7N4R0TemBai-173" value="" style="rounded=0;whiteSpace=wrap;html=1;strokeColor=#000000;fillColor=#FFFFFF;fontFamily=Georgia;fontSize=25;" parent="1" vertex="1">
          <mxGeometry x="1378" y="1113" width="34" height="34" as="geometry" />
        </mxCell>
        <mxCell id="oKtELSS2n7N4R0TemBai-174" value="" style="ellipse;whiteSpace=wrap;html=1;aspect=fixed;fontColor=#ffffff;fillColor=#B3B3B3;fontFamily=Georgia;fontSize=25;" parent="1" vertex="1">
          <mxGeometry x="1380" y="1115" width="30" height="30" as="geometry" />
        </mxCell>
        <mxCell id="oKtELSS2n7N4R0TemBai-175" value="" style="endArrow=classic;html=1;strokeWidth=1;fontFamily=Georgia;fontSize=25;" parent="1" edge="1">
          <mxGeometry width="50" height="50" relative="1" as="geometry">
            <mxPoint x="1314.58" y="860" as="sourcePoint" />
            <mxPoint x="1315" y="1000" as="targetPoint" />
          </mxGeometry>
        </mxCell>
        <mxCell id="oKtELSS2n7N4R0TemBai-184" value="" style="rounded=0;whiteSpace=wrap;html=1;fillColor=#FFFFFF;fontFamily=Georgia;fontSize=25;" parent="1" vertex="1">
          <mxGeometry x="1120" y="1450" width="390" height="160" as="geometry" />
        </mxCell>
        <mxCell id="oKtELSS2n7N4R0TemBai-185" value="" style="ellipse;whiteSpace=wrap;html=1;aspect=fixed;strokeColor=#2D7600;fontColor=#ffffff;fillColor=#60A917;fontFamily=Georgia;fontSize=25;" parent="1" vertex="1">
          <mxGeometry x="1230" y="1475" width="30" height="30" as="geometry" />
        </mxCell>
        <mxCell id="oKtELSS2n7N4R0TemBai-186" value="" style="ellipse;whiteSpace=wrap;html=1;aspect=fixed;strokeColor=#2D7600;fontColor=#ffffff;fillColor=#549414;fontFamily=Georgia;fontSize=25;" parent="1" vertex="1">
          <mxGeometry x="1230" y="1515" width="30" height="30" as="geometry" />
        </mxCell>
        <mxCell id="oKtELSS2n7N4R0TemBai-187" value="" style="ellipse;whiteSpace=wrap;html=1;aspect=fixed;strokeColor=#2D7600;fontColor=#ffffff;fillColor=#274509;fontFamily=Georgia;fontSize=25;" parent="1" vertex="1">
          <mxGeometry x="1270" y="1475" width="30" height="30" as="geometry" />
        </mxCell>
        <mxCell id="oKtELSS2n7N4R0TemBai-188" value="" style="ellipse;whiteSpace=wrap;html=1;aspect=fixed;fillColor=#60a917;strokeColor=#2D7600;fontColor=#ffffff;fontFamily=Georgia;fontSize=25;" parent="1" vertex="1">
          <mxGeometry x="1310" y="1475" width="30" height="30" as="geometry" />
        </mxCell>
        <mxCell id="oKtELSS2n7N4R0TemBai-189" value="" style="ellipse;whiteSpace=wrap;html=1;aspect=fixed;strokeColor=#2D7600;fontColor=#ffffff;fillColor=#81E31F;fontFamily=Georgia;fontSize=25;" parent="1" vertex="1">
          <mxGeometry x="1390" y="1475" width="30" height="30" as="geometry" />
        </mxCell>
        <mxCell id="oKtELSS2n7N4R0TemBai-190" value="" style="ellipse;whiteSpace=wrap;html=1;aspect=fixed;strokeColor=#2D7600;fontColor=#ffffff;fillColor=#417310;fontFamily=Georgia;fontSize=25;" parent="1" vertex="1">
          <mxGeometry x="1350" y="1475" width="30" height="30" as="geometry" />
        </mxCell>
        <mxCell id="oKtELSS2n7N4R0TemBai-191" value="" style="ellipse;whiteSpace=wrap;html=1;aspect=fixed;fontColor=#ffffff;fillColor=#B3B3B3;fontFamily=Georgia;fontSize=25;" parent="1" vertex="1">
          <mxGeometry x="1390" y="1475" width="30" height="30" as="geometry" />
        </mxCell>
        <mxCell id="oKtELSS2n7N4R0TemBai-192" value="" style="ellipse;whiteSpace=wrap;html=1;aspect=fixed;fontColor=#ffffff;fillColor=#B3B3B3;fontFamily=Georgia;fontSize=25;" parent="1" vertex="1">
          <mxGeometry x="1350" y="1475" width="30" height="30" as="geometry" />
        </mxCell>
        <mxCell id="oKtELSS2n7N4R0TemBai-193" value="" style="ellipse;whiteSpace=wrap;html=1;aspect=fixed;fontColor=#ffffff;fillColor=#B3B3B3;fontFamily=Georgia;fontSize=25;" parent="1" vertex="1">
          <mxGeometry x="1310" y="1475" width="30" height="30" as="geometry" />
        </mxCell>
        <mxCell id="oKtELSS2n7N4R0TemBai-194" value="" style="ellipse;whiteSpace=wrap;html=1;aspect=fixed;fontColor=#ffffff;fillColor=#B3B3B3;fontFamily=Georgia;fontSize=25;" parent="1" vertex="1">
          <mxGeometry x="1270" y="1475" width="30" height="30" as="geometry" />
        </mxCell>
        <mxCell id="oKtELSS2n7N4R0TemBai-195" value="" style="rounded=0;whiteSpace=wrap;html=1;strokeColor=#000000;fillColor=#FFF2CC;fontFamily=Georgia;fontSize=25;" parent="1" vertex="1">
          <mxGeometry x="1228" y="1473" width="34" height="34" as="geometry" />
        </mxCell>
        <mxCell id="oKtELSS2n7N4R0TemBai-197" value="" style="ellipse;whiteSpace=wrap;html=1;aspect=fixed;fontColor=#ffffff;fillColor=#B3B3B3;fontFamily=Georgia;fontSize=25;" parent="1" vertex="1">
          <mxGeometry x="1270" y="1475" width="30" height="30" as="geometry" />
        </mxCell>
        <mxCell id="oKtELSS2n7N4R0TemBai-198" value="" style="ellipse;whiteSpace=wrap;html=1;aspect=fixed;fontColor=#ffffff;fillColor=#B3B3B3;fontFamily=Georgia;fontSize=25;" parent="1" vertex="1">
          <mxGeometry x="1310" y="1475" width="30" height="30" as="geometry" />
        </mxCell>
        <mxCell id="oKtELSS2n7N4R0TemBai-199" value="" style="ellipse;whiteSpace=wrap;html=1;aspect=fixed;fontColor=#ffffff;fillColor=#B3B3B3;fontFamily=Georgia;fontSize=25;" parent="1" vertex="1">
          <mxGeometry x="1350" y="1475" width="30" height="30" as="geometry" />
        </mxCell>
        <mxCell id="oKtELSS2n7N4R0TemBai-200" value="" style="ellipse;whiteSpace=wrap;html=1;aspect=fixed;fontColor=#ffffff;fillColor=#B3B3B3;fontFamily=Georgia;fontSize=25;" parent="1" vertex="1">
          <mxGeometry x="1390" y="1475" width="30" height="30" as="geometry" />
        </mxCell>
        <mxCell id="oKtELSS2n7N4R0TemBai-201" value="" style="ellipse;whiteSpace=wrap;html=1;aspect=fixed;fontColor=#ffffff;fillColor=#B3B3B3;fontFamily=Georgia;fontSize=25;" parent="1" vertex="1">
          <mxGeometry x="1270" y="1475" width="30" height="30" as="geometry" />
        </mxCell>
        <mxCell id="oKtELSS2n7N4R0TemBai-202" value="" style="ellipse;whiteSpace=wrap;html=1;aspect=fixed;fontColor=#ffffff;fillColor=#B3B3B3;fontFamily=Georgia;fontSize=25;" parent="1" vertex="1">
          <mxGeometry x="1310" y="1475" width="30" height="30" as="geometry" />
        </mxCell>
        <mxCell id="oKtELSS2n7N4R0TemBai-203" value="" style="ellipse;whiteSpace=wrap;html=1;aspect=fixed;fontColor=#ffffff;fillColor=#B3B3B3;fontFamily=Georgia;fontSize=25;" parent="1" vertex="1">
          <mxGeometry x="1350" y="1475" width="30" height="30" as="geometry" />
        </mxCell>
        <mxCell id="oKtELSS2n7N4R0TemBai-204" value="" style="ellipse;whiteSpace=wrap;html=1;aspect=fixed;fontColor=#ffffff;fillColor=#B3B3B3;fontFamily=Georgia;fontSize=25;" parent="1" vertex="1">
          <mxGeometry x="1390" y="1475" width="30" height="30" as="geometry" />
        </mxCell>
        <mxCell id="oKtELSS2n7N4R0TemBai-205" value="" style="rounded=0;whiteSpace=wrap;html=1;fillColor=#fff2cc;fontFamily=Georgia;fontSize=25;" parent="1" vertex="1">
          <mxGeometry x="1268" y="1473" width="34" height="34" as="geometry" />
        </mxCell>
        <mxCell id="oKtELSS2n7N4R0TemBai-207" value="" style="rounded=0;whiteSpace=wrap;html=1;fillColor=#fff2cc;fontFamily=Georgia;fontSize=25;" parent="1" vertex="1">
          <mxGeometry x="1308" y="1473" width="34" height="34" as="geometry" />
        </mxCell>
        <mxCell id="oKtELSS2n7N4R0TemBai-209" value="" style="rounded=0;whiteSpace=wrap;html=1;fillColor=#fff2cc;fontFamily=Georgia;fontSize=25;" parent="1" vertex="1">
          <mxGeometry x="1348" y="1473" width="34" height="34" as="geometry" />
        </mxCell>
        <mxCell id="oKtELSS2n7N4R0TemBai-211" value="" style="rounded=0;whiteSpace=wrap;html=1;fillColor=#FFF2CC;fontFamily=Georgia;fontSize=25;" parent="1" vertex="1">
          <mxGeometry x="1388" y="1473" width="34" height="34" as="geometry" />
        </mxCell>
        <mxCell id="oKtELSS2n7N4R0TemBai-213" value="" style="rounded=0;whiteSpace=wrap;html=1;strokeColor=#000000;fillColor=#FFF2CC;fontFamily=Georgia;fontSize=25;" parent="1" vertex="1">
          <mxGeometry x="1228" y="1513" width="34" height="34" as="geometry" />
        </mxCell>
        <mxCell id="oKtELSS2n7N4R0TemBai-215" value="" style="rounded=0;whiteSpace=wrap;html=1;strokeColor=#000000;fillColor=#FFF2CC;fontFamily=Georgia;fontSize=25;" parent="1" vertex="1">
          <mxGeometry x="1228" y="1553" width="34" height="34" as="geometry" />
        </mxCell>
        <mxCell id="oKtELSS2n7N4R0TemBai-217" value="" style="ellipse;whiteSpace=wrap;html=1;aspect=fixed;strokeColor=#2D7600;fontColor=#ffffff;fillColor=#549414;fontFamily=Georgia;fontSize=25;" parent="1" vertex="1">
          <mxGeometry x="1270" y="1515" width="30" height="30" as="geometry" />
        </mxCell>
        <mxCell id="oKtELSS2n7N4R0TemBai-218" value="" style="rounded=0;whiteSpace=wrap;html=1;strokeColor=#000000;fillColor=#FFF2CC;fontFamily=Georgia;fontSize=25;" parent="1" vertex="1">
          <mxGeometry x="1268" y="1513" width="34" height="34" as="geometry" />
        </mxCell>
        <mxCell id="oKtELSS2n7N4R0TemBai-220" value="" style="rounded=0;whiteSpace=wrap;html=1;strokeColor=#000000;fillColor=#FFF2CC;fontFamily=Georgia;fontSize=25;" parent="1" vertex="1">
          <mxGeometry x="1268" y="1553" width="34" height="34" as="geometry" />
        </mxCell>
        <mxCell id="oKtELSS2n7N4R0TemBai-222" value="" style="ellipse;whiteSpace=wrap;html=1;aspect=fixed;strokeColor=#2D7600;fontColor=#ffffff;fillColor=#549414;fontFamily=Georgia;fontSize=25;" parent="1" vertex="1">
          <mxGeometry x="1310" y="1515" width="30" height="30" as="geometry" />
        </mxCell>
        <mxCell id="oKtELSS2n7N4R0TemBai-223" value="" style="rounded=0;whiteSpace=wrap;html=1;fillColor=#fff2cc;fontFamily=Georgia;fontSize=25;" parent="1" vertex="1">
          <mxGeometry x="1308" y="1513" width="34" height="34" as="geometry" />
        </mxCell>
        <mxCell id="oKtELSS2n7N4R0TemBai-225" value="" style="rounded=0;whiteSpace=wrap;html=1;strokeColor=#000000;fillColor=#FFF2CC;fontFamily=Georgia;fontSize=25;" parent="1" vertex="1">
          <mxGeometry x="1308" y="1553" width="34" height="34" as="geometry" />
        </mxCell>
        <mxCell id="oKtELSS2n7N4R0TemBai-227" value="" style="ellipse;whiteSpace=wrap;html=1;aspect=fixed;strokeColor=#2D7600;fontColor=#ffffff;fillColor=#549414;fontFamily=Georgia;fontSize=25;" parent="1" vertex="1">
          <mxGeometry x="1350" y="1515" width="30" height="30" as="geometry" />
        </mxCell>
        <mxCell id="oKtELSS2n7N4R0TemBai-228" value="" style="rounded=0;whiteSpace=wrap;html=1;fillColor=#fff2cc;fontFamily=Georgia;fontSize=25;" parent="1" vertex="1">
          <mxGeometry x="1348" y="1513" width="34" height="34" as="geometry" />
        </mxCell>
        <mxCell id="oKtELSS2n7N4R0TemBai-230" value="" style="rounded=0;whiteSpace=wrap;html=1;fillColor=#fff2cc;fontFamily=Georgia;fontSize=25;" parent="1" vertex="1">
          <mxGeometry x="1348" y="1553" width="34" height="34" as="geometry" />
        </mxCell>
        <mxCell id="oKtELSS2n7N4R0TemBai-232" value="" style="ellipse;whiteSpace=wrap;html=1;aspect=fixed;strokeColor=#2D7600;fontColor=#ffffff;fillColor=#549414;fontFamily=Georgia;fontSize=25;" parent="1" vertex="1">
          <mxGeometry x="1390" y="1515" width="30" height="30" as="geometry" />
        </mxCell>
        <mxCell id="oKtELSS2n7N4R0TemBai-233" value="" style="rounded=0;whiteSpace=wrap;html=1;fillColor=#FFF2CC;fontFamily=Georgia;fontSize=25;" parent="1" vertex="1">
          <mxGeometry x="1388" y="1513" width="34" height="34" as="geometry" />
        </mxCell>
        <mxCell id="oKtELSS2n7N4R0TemBai-235" value="" style="rounded=0;whiteSpace=wrap;html=1;fillColor=#fff2cc;fontFamily=Georgia;fontSize=25;" parent="1" vertex="1">
          <mxGeometry x="1388" y="1553" width="34" height="34" as="geometry" />
        </mxCell>
        <mxCell id="oKtELSS2n7N4R0TemBai-237" value="" style="ellipse;whiteSpace=wrap;html=1;aspect=fixed;strokeColor=#2D7600;fontColor=#ffffff;fillColor=#60A917;fontFamily=Georgia;fontSize=25;" parent="1" vertex="1">
          <mxGeometry x="1230" y="1475" width="30" height="30" as="geometry" />
        </mxCell>
        <mxCell id="oKtELSS2n7N4R0TemBai-238" value="" style="ellipse;whiteSpace=wrap;html=1;aspect=fixed;strokeColor=#2D7600;fontColor=#ffffff;fillColor=#7EDE1E;fontFamily=Georgia;fontSize=25;" parent="1" vertex="1">
          <mxGeometry x="1230" y="1555" width="30" height="30" as="geometry" />
        </mxCell>
        <mxCell id="oKtELSS2n7N4R0TemBai-239" value="" style="ellipse;whiteSpace=wrap;html=1;aspect=fixed;strokeColor=#2D7600;fontColor=#ffffff;fillColor=#549414;fontFamily=Georgia;fontSize=25;" parent="1" vertex="1">
          <mxGeometry x="1230" y="1515" width="30" height="30" as="geometry" />
        </mxCell>
        <mxCell id="oKtELSS2n7N4R0TemBai-240" value="" style="ellipse;whiteSpace=wrap;html=1;aspect=fixed;strokeColor=#2D7600;fontColor=#ffffff;fillColor=#274509;fontFamily=Georgia;fontSize=25;" parent="1" vertex="1">
          <mxGeometry x="1270" y="1475" width="30" height="30" as="geometry" />
        </mxCell>
        <mxCell id="oKtELSS2n7N4R0TemBai-241" value="" style="ellipse;whiteSpace=wrap;html=1;aspect=fixed;fillColor=#60a917;strokeColor=#2D7600;fontColor=#ffffff;fontFamily=Georgia;fontSize=25;" parent="1" vertex="1">
          <mxGeometry x="1270" y="1515" width="30" height="30" as="geometry" />
        </mxCell>
        <mxCell id="oKtELSS2n7N4R0TemBai-242" value="" style="ellipse;whiteSpace=wrap;html=1;aspect=fixed;fillColor=#60a917;strokeColor=#2D7600;fontColor=#ffffff;fontFamily=Georgia;fontSize=25;" parent="1" vertex="1">
          <mxGeometry x="1310" y="1475" width="30" height="30" as="geometry" />
        </mxCell>
        <mxCell id="oKtELSS2n7N4R0TemBai-243" value="" style="ellipse;whiteSpace=wrap;html=1;aspect=fixed;strokeColor=#2D7600;fontColor=#ffffff;fillColor=#76CF1C;fontFamily=Georgia;fontSize=25;" parent="1" vertex="1">
          <mxGeometry x="1310" y="1515" width="30" height="30" as="geometry" />
        </mxCell>
        <mxCell id="oKtELSS2n7N4R0TemBai-245" value="" style="ellipse;whiteSpace=wrap;html=1;aspect=fixed;strokeColor=#2D7600;fontColor=#ffffff;fillColor=#1C3807;fontFamily=Georgia;fontSize=25;" parent="1" vertex="1">
          <mxGeometry x="1350" y="1515" width="30" height="30" as="geometry" />
        </mxCell>
        <mxCell id="oKtELSS2n7N4R0TemBai-246" value="" style="ellipse;whiteSpace=wrap;html=1;aspect=fixed;strokeColor=#2D7600;fontColor=#ffffff;fillColor=#3B690E;fontFamily=Georgia;fontSize=25;" parent="1" vertex="1">
          <mxGeometry x="1270" y="1555" width="30" height="30" as="geometry" />
        </mxCell>
        <mxCell id="oKtELSS2n7N4R0TemBai-247" value="" style="ellipse;whiteSpace=wrap;html=1;aspect=fixed;strokeColor=#2D7600;fontColor=#ffffff;fillColor=#60A818;fontFamily=Georgia;fontSize=25;" parent="1" vertex="1">
          <mxGeometry x="1310" y="1555" width="30" height="30" as="geometry" />
        </mxCell>
        <mxCell id="oKtELSS2n7N4R0TemBai-248" value="" style="ellipse;whiteSpace=wrap;html=1;aspect=fixed;strokeColor=#2D7600;fontColor=#ffffff;fillColor=#40700F;fontFamily=Georgia;fontSize=25;" parent="1" vertex="1">
          <mxGeometry x="1350" y="1555" width="30" height="30" as="geometry" />
        </mxCell>
        <mxCell id="oKtELSS2n7N4R0TemBai-249" value="" style="ellipse;whiteSpace=wrap;html=1;aspect=fixed;fillColor=#60a917;strokeColor=#2D7600;fontColor=#ffffff;fontFamily=Georgia;fontSize=25;" parent="1" vertex="1">
          <mxGeometry x="1390" y="1555" width="30" height="30" as="geometry" />
        </mxCell>
        <mxCell id="oKtELSS2n7N4R0TemBai-250" value="" style="ellipse;whiteSpace=wrap;html=1;aspect=fixed;strokeColor=#2D7600;fontColor=#ffffff;fillColor=#447810;fontFamily=Georgia;fontSize=25;" parent="1" vertex="1">
          <mxGeometry x="1390" y="1515" width="30" height="30" as="geometry" />
        </mxCell>
        <mxCell id="oKtELSS2n7N4R0TemBai-251" value="" style="ellipse;whiteSpace=wrap;html=1;aspect=fixed;strokeColor=#2D7600;fontColor=#ffffff;fillColor=#417310;fontFamily=Georgia;fontSize=25;" parent="1" vertex="1">
          <mxGeometry x="1350" y="1475" width="30" height="30" as="geometry" />
        </mxCell>
        <mxCell id="oKtELSS2n7N4R0TemBai-252" value="" style="endArrow=classic;html=1;strokeWidth=1;fontFamily=Georgia;fontSize=25;" parent="1" edge="1">
          <mxGeometry width="50" height="50" relative="1" as="geometry">
            <mxPoint x="1318" y="1239.9999999999995" as="sourcePoint" />
            <mxPoint x="1318.42" y="1377.4999999999995" as="targetPoint" />
          </mxGeometry>
        </mxCell>
        <mxCell id="oKtELSS2n7N4R0TemBai-253" value="&lt;div style=&quot;font-size: 25px&quot;&gt;&lt;font style=&quot;font-size: 25px&quot;&gt;&lt;b style=&quot;font-size: 25px&quot;&gt;&lt;font style=&quot;font-size: 25px&quot;&gt;Germination/&lt;br&gt;Haploid Selection&lt;br style=&quot;font-size: 25px&quot;&gt;&lt;/font&gt;&lt;/b&gt;&lt;/font&gt;&lt;/div&gt;" style="text;html=1;align=center;verticalAlign=middle;resizable=0;points=[];autosize=1;fontFamily=Georgia;fontSize=25;" parent="1" vertex="1">
          <mxGeometry x="1454.5" y="1258" width="240" height="70" as="geometry" />
        </mxCell>
        <mxCell id="oKtELSS2n7N4R0TemBai-254" value="" style="endArrow=classic;html=1;strokeWidth=1;fontFamily=Georgia;fontSize=25;" parent="1" edge="1">
          <mxGeometry width="50" height="50" relative="1" as="geometry">
            <mxPoint x="1310" y="515" as="sourcePoint" />
            <mxPoint x="1310.42" y="665" as="targetPoint" />
          </mxGeometry>
        </mxCell>
        <mxCell id="oKtELSS2n7N4R0TemBai-255" value="&lt;font style=&quot;font-size: 25px;&quot;&gt;&lt;b style=&quot;font-size: 25px;&quot;&gt;&lt;font style=&quot;font-size: 25px;&quot;&gt;Spotting&lt;br style=&quot;font-size: 25px;&quot;&gt;&amp;amp;&lt;br style=&quot;font-size: 25px;&quot;&gt;Microfluidic chip assembling&lt;/font&gt;&lt;/b&gt;&lt;/font&gt;" style="text;html=1;align=center;verticalAlign=middle;resizable=0;points=[];autosize=1;fontFamily=Georgia;fontSize=25;" parent="1" vertex="1">
          <mxGeometry x="1345" y="875" width="390" height="100" as="geometry" />
        </mxCell>
        <mxCell id="oKtELSS2n7N4R0TemBai-256" value="" style="endArrow=none;dashed=1;html=1;strokeWidth=6;" parent="1" edge="1">
          <mxGeometry width="50" height="50" relative="1" as="geometry">
            <mxPoint x="390" y="-80" as="sourcePoint" />
            <mxPoint x="390" y="1740" as="targetPoint" />
          </mxGeometry>
        </mxCell>
        <mxCell id="oKtELSS2n7N4R0TemBai-258" value="" style="rounded=0;whiteSpace=wrap;html=1;fillColor=#D4E1F5;fontFamily=Georgia;fontSize=25;" parent="1" vertex="1">
          <mxGeometry x="1720" y="112.5" width="100" height="55" as="geometry" />
        </mxCell>
        <mxCell id="oKtELSS2n7N4R0TemBai-259" value="" style="ellipse;whiteSpace=wrap;html=1;aspect=fixed;strokeColor=#2D7600;fontColor=#ffffff;fillColor=#60A917;fontFamily=Georgia;fontSize=25;" parent="1" vertex="1">
          <mxGeometry x="1735" y="125" width="30" height="30" as="geometry" />
        </mxCell>
        <mxCell id="oKtELSS2n7N4R0TemBai-260" value="" style="ellipse;whiteSpace=wrap;html=1;aspect=fixed;strokeColor=#2D7600;fontColor=#ffffff;fillColor=#7EDE1E;fontFamily=Georgia;fontSize=25;" parent="1" vertex="1">
          <mxGeometry x="1780" y="125" width="30" height="30" as="geometry" />
        </mxCell>
        <mxCell id="oKtELSS2n7N4R0TemBai-276" value="&lt;font style=&quot;font-size: 35px&quot;&gt;&lt;b&gt;&lt;font style=&quot;font-size: 35px&quot;&gt;+&lt;/font&gt;&lt;/b&gt;&lt;/font&gt;" style="text;html=1;align=center;verticalAlign=middle;resizable=0;points=[];autosize=1;fontFamily=Georgia;fontSize=25;" parent="1" vertex="1">
          <mxGeometry x="1645" y="112.5" width="40" height="40" as="geometry" />
        </mxCell>
        <mxCell id="oKtELSS2n7N4R0TemBai-278" value="" style="shape=partialRectangle;whiteSpace=wrap;html=1;bottom=1;right=1;left=1;top=0;fillColor=none;routingCenterX=-0.5;strokeColor=#000000;direction=south;" parent="1" vertex="1">
          <mxGeometry x="1364.5" y="15" width="25.5" height="207" as="geometry" />
        </mxCell>
        <mxCell id="oKtELSS2n7N4R0TemBai-279" value="" style="shape=partialRectangle;whiteSpace=wrap;html=1;bottom=1;right=1;left=1;top=0;fillColor=none;routingCenterX=-0.5;strokeColor=#000000;direction=north;" parent="1" vertex="1">
          <mxGeometry x="1904.5" y="10" width="25.5" height="210" as="geometry" />
        </mxCell>
        <mxCell id="oKtELSS2n7N4R0TemBai-280" value="" style="rounded=0;whiteSpace=wrap;html=1;fillColor=#D4E1F5;fontFamily=Georgia;fontSize=25;" parent="1" vertex="1">
          <mxGeometry x="1335" y="355.62" width="90" height="50" as="geometry" />
        </mxCell>
        <mxCell id="oKtELSS2n7N4R0TemBai-50" value="" style="ellipse;whiteSpace=wrap;html=1;aspect=fixed;strokeColor=#2D7600;fontColor=#ffffff;fillColor=#40700F;fontFamily=Georgia;fontSize=25;" parent="1" vertex="1">
          <mxGeometry x="1340" y="450.62" width="30" height="30" as="geometry" />
        </mxCell>
        <mxCell id="oKtELSS2n7N4R0TemBai-51" value="" style="ellipse;whiteSpace=wrap;html=1;aspect=fixed;fillColor=#60a917;strokeColor=#2D7600;fontColor=#ffffff;fontFamily=Georgia;fontSize=25;" parent="1" vertex="1">
          <mxGeometry x="1380" y="450.62" width="30" height="30" as="geometry" />
        </mxCell>
        <mxCell id="oKtELSS2n7N4R0TemBai-282" value="" style="rounded=0;whiteSpace=wrap;html=1;fillColor=#D4E1F5;fontFamily=Georgia;fontSize=25;" parent="1" vertex="1">
          <mxGeometry x="1335" y="710" width="90" height="50" as="geometry" />
        </mxCell>
        <mxCell id="oKtELSS2n7N4R0TemBai-45" value="" style="ellipse;whiteSpace=wrap;html=1;aspect=fixed;strokeColor=#2D7600;fontColor=#ffffff;fillColor=#81E31F;fontFamily=Georgia;fontSize=25;" parent="1" vertex="1">
          <mxGeometry x="1380" y="370.62" width="30" height="30" as="geometry" />
        </mxCell>
        <mxCell id="oKtELSS2n7N4R0TemBai-53" value="" style="ellipse;whiteSpace=wrap;html=1;aspect=fixed;strokeColor=#2D7600;fontColor=#ffffff;fillColor=#417310;fontFamily=Georgia;fontSize=25;" parent="1" vertex="1">
          <mxGeometry x="1340" y="370.62" width="30" height="30" as="geometry" />
        </mxCell>
        <mxCell id="oKtELSS2n7N4R0TemBai-71" value="" style="ellipse;whiteSpace=wrap;html=1;aspect=fixed;fontColor=#ffffff;fillColor=#B3B3B3;fontFamily=Georgia;fontSize=25;" parent="1" vertex="1">
          <mxGeometry x="1380" y="725" width="30" height="30" as="geometry" />
        </mxCell>
        <mxCell id="oKtELSS2n7N4R0TemBai-72" value="" style="ellipse;whiteSpace=wrap;html=1;aspect=fixed;fontColor=#ffffff;fillColor=#B3B3B3;fontFamily=Georgia;fontSize=25;" parent="1" vertex="1">
          <mxGeometry x="1340" y="725" width="30" height="30" as="geometry" />
        </mxCell>
        <mxCell id="oKtELSS2n7N4R0TemBai-284" value="" style="ellipse;whiteSpace=wrap;html=1;aspect=fixed;strokeColor=#2D7600;fontColor=#ffffff;fillColor=#81E31F;fontFamily=Georgia;fontSize=25;" parent="1" vertex="1">
          <mxGeometry x="1390" y="1475" width="30" height="30" as="geometry" />
        </mxCell>
        <mxCell id="oKtELSS2n7N4R0TemBai-285" value="&lt;font style=&quot;font-size: 25px;&quot;&gt;&lt;b style=&quot;font-size: 25px;&quot;&gt;&lt;font style=&quot;font-size: 25px;&quot;&gt;DNA-damage sensors&lt;br style=&quot;font-size: 25px;&quot;&gt;&lt;/font&gt;&lt;/b&gt;&lt;/font&gt;" style="text;html=1;align=center;verticalAlign=middle;resizable=0;points=[];autosize=1;fontFamily=Georgia;fontSize=25;" parent="1" vertex="1">
          <mxGeometry x="1640" y="170" width="290" height="40" as="geometry" />
        </mxCell>
        <mxCell id="oKtELSS2n7N4R0TemBai-286" value="&lt;font style=&quot;font-size: 25px;&quot;&gt;&lt;b style=&quot;font-size: 25px;&quot;&gt;&lt;font style=&quot;font-size: 25px;&quot;&gt;Spores&lt;/font&gt;&lt;/b&gt;&lt;/font&gt;&lt;br style=&quot;font-size: 25px;&quot;&gt;&lt;font style=&quot;font-size: 25px;&quot;&gt;&lt;b style=&quot;font-size: 25px;&quot;&gt;&lt;font style=&quot;font-size: 25px;&quot;&gt;&lt;font style=&quot;font-size: 25px;&quot;&gt;&lt;b style=&quot;font-size: 25px;&quot;&gt;&lt;font style=&quot;font-size: 25px;&quot;&gt;Y187 - (Yeast GFP Library &amp;amp; DNA-damage sensors)&lt;/font&gt;&lt;/b&gt;&lt;/font&gt;&lt;/font&gt;&lt;/b&gt;&lt;/font&gt;" style="text;html=1;align=center;verticalAlign=middle;resizable=0;points=[];autosize=1;fontFamily=Georgia;fontSize=25;" parent="1" vertex="1">
          <mxGeometry x="430" y="745" width="660" height="70" as="geometry" />
        </mxCell>
        <mxCell id="oKtELSS2n7N4R0TemBai-287" value="&lt;font style=&quot;font-size: 25px;&quot;&gt;&lt;b style=&quot;font-size: 25px;&quot;&gt;&lt;font style=&quot;font-size: 25px;&quot;&gt;Spores&lt;/font&gt;&lt;/b&gt;&lt;/font&gt;&lt;br style=&quot;font-size: 25px;&quot;&gt;&lt;font style=&quot;font-size: 25px;&quot;&gt;&lt;b style=&quot;font-size: 25px;&quot;&gt;&lt;font style=&quot;font-size: 25px;&quot;&gt;&lt;font style=&quot;font-size: 25px;&quot;&gt;&lt;b style=&quot;font-size: 25px;&quot;&gt;&lt;font style=&quot;font-size: 25px;&quot;&gt;Y187 - (Yeast GFP Library &amp;amp; DNA-damage sensors)&lt;/font&gt;&lt;/b&gt;&lt;/font&gt;&lt;/font&gt;&lt;/b&gt;&lt;/font&gt;" style="text;html=1;align=center;verticalAlign=middle;resizable=0;points=[];autosize=1;fontFamily=Georgia;fontSize=25;" parent="1" vertex="1">
          <mxGeometry x="435" y="1045" width="660" height="70" as="geometry" />
        </mxCell>
        <mxCell id="oKtELSS2n7N4R0TemBai-288" value="&lt;font style=&quot;font-size: 25px;&quot;&gt;&lt;b style=&quot;font-size: 25px;&quot;&gt;&lt;font style=&quot;font-size: 25px;&quot;&gt;Haploid&lt;/font&gt;&lt;/b&gt;&lt;/font&gt;&lt;br style=&quot;font-size: 25px;&quot;&gt;&lt;font style=&quot;font-size: 25px;&quot;&gt;&lt;b style=&quot;font-size: 25px;&quot;&gt;&lt;font style=&quot;font-size: 25px;&quot;&gt;&lt;font style=&quot;font-size: 25px;&quot;&gt;&lt;b style=&quot;font-size: 25px;&quot;&gt;&lt;font style=&quot;font-size: 25px;&quot;&gt;Y187 - (Yeast GFP Library &amp;amp; DNA-damage sensors)&lt;/font&gt;&lt;/b&gt;&lt;/font&gt;&lt;/font&gt;&lt;/b&gt;&lt;/font&gt;" style="text;html=1;align=center;verticalAlign=middle;resizable=0;points=[];autosize=1;fontFamily=Georgia;fontSize=25;" parent="1" vertex="1">
          <mxGeometry x="440" y="1467" width="660" height="70" as="geometry" />
        </mxCell>
        <mxCell id="oKtELSS2n7N4R0TemBai-289" value="&lt;font style=&quot;font-size: 25px;&quot;&gt;&lt;b style=&quot;font-size: 25px;&quot;&gt;&lt;font style=&quot;font-size: 25px;&quot;&gt;Diploid cells&lt;br style=&quot;font-size: 25px;&quot;&gt;&lt;/font&gt;&lt;/b&gt;&lt;/font&gt;" style="text;html=1;align=center;verticalAlign=middle;resizable=0;points=[];autosize=1;fontFamily=Georgia;fontSize=25;" parent="1" vertex="1">
          <mxGeometry x="-374.9999999999999" y="448.05" width="180" height="40" as="geometry" />
        </mxCell>
        <mxCell id="oKtELSS2n7N4R0TemBai-290" value="&lt;font style=&quot;font-size: 25px;&quot;&gt;&lt;b style=&quot;font-size: 25px;&quot;&gt;&lt;font style=&quot;font-size: 25px;&quot;&gt;Spores&lt;br style=&quot;font-size: 25px;&quot;&gt;&lt;/font&gt;&lt;/b&gt;&lt;/font&gt;" style="text;html=1;align=center;verticalAlign=middle;resizable=0;points=[];autosize=1;fontFamily=Georgia;fontSize=25;" parent="1" vertex="1">
          <mxGeometry x="-349.9999999999999" y="790" width="100" height="40" as="geometry" />
        </mxCell>
        <mxCell id="oKtELSS2n7N4R0TemBai-291" value="&lt;font style=&quot;font-size: 25px;&quot;&gt;&lt;b style=&quot;font-size: 25px;&quot;&gt;&lt;font style=&quot;font-size: 25px;&quot;&gt;Haploid cells&lt;br style=&quot;font-size: 25px;&quot;&gt;&lt;/font&gt;&lt;/b&gt;&lt;/font&gt;" style="text;html=1;align=center;verticalAlign=middle;resizable=0;points=[];autosize=1;fontFamily=Georgia;fontSize=25;" parent="1" vertex="1">
          <mxGeometry x="-374.9999999999999" y="1497" width="180" height="40" as="geometry" />
        </mxCell>
        <mxCell id="oKtELSS2n7N4R0TemBai-292" value="&lt;font style=&quot;font-size: 25px;&quot;&gt;&lt;b style=&quot;font-size: 25px;&quot;&gt;&lt;font style=&quot;font-size: 25px;&quot;&gt;Haploid cells&lt;br style=&quot;font-size: 25px;&quot;&gt;&lt;/font&gt;&lt;/b&gt;&lt;/font&gt;" style="text;html=1;align=center;verticalAlign=middle;resizable=0;points=[];autosize=1;fontFamily=Georgia;fontSize=25;" parent="1" vertex="1">
          <mxGeometry x="-364.9999999999999" y="120" width="180" height="40" as="geometry" />
        </mxCell>
        <mxCell id="oKtELSS2n7N4R0TemBai-293" value="&lt;font style=&quot;font-size: 25px&quot;&gt;&lt;b style=&quot;font-size: 25px&quot;&gt;&lt;font style=&quot;font-size: 25px&quot;&gt;Haploid&lt;br style=&quot;font-size: 25px&quot;&gt;Y187, Yeast GFP Library,&lt;br&gt;DNA-damage sensors&lt;br style=&quot;font-size: 25px&quot;&gt;&lt;/font&gt;&lt;/b&gt;&lt;/font&gt;" style="text;html=1;align=center;verticalAlign=middle;resizable=0;points=[];autosize=1;fontFamily=Georgia;fontSize=25;" parent="1" vertex="1">
          <mxGeometry x="600" y="84.99999999999994" width="330" height="100" as="geometry" />
        </mxCell>
        <mxCell id="oKtELSS2n7N4R0TemBai-295" value="" style="whiteSpace=wrap;html=1;aspect=fixed;strokeColor=#000000;fillColor=#60A917;direction=south;fontFamily=Georgia;fontSize=25;" parent="1" vertex="1">
          <mxGeometry x="181" y="127.5" width="28" height="28" as="geometry" />
        </mxCell>
        <mxCell id="oKtELSS2n7N4R0TemBai-298" value="" style="ellipse;whiteSpace=wrap;html=1;rotation=130;direction=south;fillColor=#FFFFFF;fontFamily=Georgia;fontSize=25;" parent="1" vertex="1">
          <mxGeometry x="-14.999999999999986" y="65" width="70" height="60" as="geometry" />
        </mxCell>
        <mxCell id="oKtELSS2n7N4R0TemBai-299" value="" style="ellipse;whiteSpace=wrap;html=1;direction=north;rotation=-45;fillColor=#FFFFFF;fontFamily=Georgia;fontSize=25;" parent="1" vertex="1">
          <mxGeometry x="-79.99999999999999" y="90" width="120" height="100" as="geometry" />
        </mxCell>
        <mxCell id="oKtELSS2n7N4R0TemBai-300" value="" style="whiteSpace=wrap;html=1;aspect=fixed;strokeColor=#000000;direction=south;fillColor=#FFFFFF;fontFamily=Georgia;fontSize=25;" parent="1" vertex="1">
          <mxGeometry x="-33.999999999999986" y="127.5" width="28" height="28" as="geometry" />
        </mxCell>
        <mxCell id="oKtELSS2n7N4R0TemBai-301" value="" style="whiteSpace=wrap;html=1;aspect=fixed;strokeColor=#000000;direction=south;fillColor=#FFFFFF;fontFamily=Georgia;fontSize=25;" parent="1" vertex="1">
          <mxGeometry x="44.500000000000014" y="448.05" width="28" height="28" as="geometry" />
        </mxCell>
        <mxCell id="oKtELSS2n7N4R0TemBai-302" value="" style="whiteSpace=wrap;html=1;aspect=fixed;strokeColor=#000000;fillColor=#60A917;direction=south;fontFamily=Georgia;fontSize=25;" parent="1" vertex="1">
          <mxGeometry x="95" y="448.05" width="28" height="28" as="geometry" />
        </mxCell>
        <mxCell id="oKtELSS2n7N4R0TemBai-303" value="" style="whiteSpace=wrap;html=1;aspect=fixed;strokeColor=#000000;direction=south;fillColor=#FFFFFF;fontFamily=Georgia;fontSize=25;" parent="1" vertex="1">
          <mxGeometry x="30.200000000000014" y="777" width="28" height="28" as="geometry" />
        </mxCell>
        <mxCell id="oKtELSS2n7N4R0TemBai-304" value="" style="whiteSpace=wrap;html=1;aspect=fixed;strokeColor=#000000;direction=south;fillColor=#FFFFFF;fontFamily=Georgia;fontSize=25;" parent="1" vertex="1">
          <mxGeometry x="117.70000000000002" y="777" width="28" height="28" as="geometry" />
        </mxCell>
        <mxCell id="oKtELSS2n7N4R0TemBai-305" value="" style="whiteSpace=wrap;html=1;aspect=fixed;strokeColor=#000000;direction=south;fillColor=#FFFFFF;fontFamily=Georgia;fontSize=25;" parent="1" vertex="1">
          <mxGeometry x="123.00000000000001" y="866" width="28" height="28" as="geometry" />
        </mxCell>
        <mxCell id="oKtELSS2n7N4R0TemBai-306" value="" style="whiteSpace=wrap;html=1;aspect=fixed;strokeColor=#000000;fillColor=#60A917;direction=south;fontFamily=Georgia;fontSize=25;" parent="1" vertex="1">
          <mxGeometry x="37.7" y="866" width="28" height="28" as="geometry" />
        </mxCell>
        <mxCell id="oKtELSS2n7N4R0TemBai-307" value="" style="ellipse;whiteSpace=wrap;html=1;rotation=130;direction=south;fillColor=#FFFFFF;fontFamily=Georgia;fontSize=25;" parent="1" vertex="1">
          <mxGeometry x="75.7" y="1460" width="70" height="60" as="geometry" />
        </mxCell>
        <mxCell id="oKtELSS2n7N4R0TemBai-308" value="" style="ellipse;whiteSpace=wrap;html=1;direction=north;rotation=-45;fillColor=#FFFFFF;fontFamily=Georgia;fontSize=25;" parent="1" vertex="1">
          <mxGeometry x="10.700000000000003" y="1485" width="120" height="100" as="geometry" />
        </mxCell>
        <mxCell id="oKtELSS2n7N4R0TemBai-309" value="" style="whiteSpace=wrap;html=1;aspect=fixed;strokeColor=#000000;fillColor=#60A917;direction=south;fontFamily=Georgia;fontSize=25;" parent="1" vertex="1">
          <mxGeometry x="56.7" y="1522.5" width="28" height="28" as="geometry" />
        </mxCell>
        <mxCell id="oKtELSS2n7N4R0TemBai-312" value="" style="ellipse;whiteSpace=wrap;html=1;rotation=130;direction=south;fillColor=#FFFFFF;" parent="1" vertex="1">
          <mxGeometry x="1190" y="37.5" width="70" height="60" as="geometry" />
        </mxCell>
        <mxCell id="oKtELSS2n7N4R0TemBai-313" value="" style="ellipse;whiteSpace=wrap;html=1;direction=north;rotation=-45;fillColor=#FFFFFF;fontFamily=Georgia;fontSize=25;" parent="1" vertex="1">
          <mxGeometry x="1125" y="62.5" width="120" height="100" as="geometry" />
        </mxCell>
        <mxCell id="oKtELSS2n7N4R0TemBai-314" value="" style="whiteSpace=wrap;html=1;aspect=fixed;strokeColor=#000000;direction=south;fillColor=#FFFFFF;fontFamily=Georgia;fontSize=25;" parent="1" vertex="1">
          <mxGeometry x="1171" y="100" width="28" height="28" as="geometry" />
        </mxCell>
        <mxCell id="oKtELSS2n7N4R0TemBai-319" value="&lt;font style=&quot;font-size: 35px&quot;&gt;&lt;b&gt;&lt;font style=&quot;font-size: 35px&quot;&gt;&lt;font style=&quot;font-size: 35px&quot;&gt;In Orbit&lt;/font&gt;&lt;br&gt;&lt;/font&gt;&lt;/b&gt;&lt;/font&gt;" style="text;html=1;align=center;verticalAlign=middle;resizable=0;points=[];autosize=1;fontFamily=Georgia;fontSize=25;" parent="1" vertex="1">
          <mxGeometry x="-484.9999999999999" y="1270" width="160" height="40" as="geometry" />
        </mxCell>
        <mxCell id="oKtELSS2n7N4R0TemBai-320" value="&lt;font style=&quot;font-size: 35px&quot;&gt;&lt;b&gt;&lt;font style=&quot;font-size: 35px&quot;&gt;&lt;font style=&quot;font-size: 35px&quot;&gt;On Earth&lt;/font&gt;&lt;br&gt;&lt;/font&gt;&lt;/b&gt;&lt;/font&gt;" style="text;html=1;align=center;verticalAlign=middle;resizable=0;points=[];autosize=1;fontFamily=Georgia;fontSize=25;" parent="1" vertex="1">
          <mxGeometry x="-504.9999999999999" y="42.5" width="180" height="40" as="geometry" />
        </mxCell>
        <mxCell id="oKtELSS2n7N4R0TemBai-321" value="&lt;font style=&quot;font-size: 35px&quot; face=&quot;Georgia&quot;&gt;&lt;b&gt;&lt;font style=&quot;font-size: 35px&quot;&gt;&lt;font style=&quot;font-size: 35px&quot;&gt;Theoretical Implementation&lt;/font&gt;&lt;br&gt;&lt;/font&gt;&lt;/b&gt;&lt;/font&gt;" style="text;html=1;align=center;verticalAlign=middle;resizable=0;points=[];autosize=1;" parent="1" vertex="1">
          <mxGeometry x="-209.9999999999999" y="-45" width="520" height="30" as="geometry" />
        </mxCell>
        <mxCell id="oKtELSS2n7N4R0TemBai-322" value="&lt;font style=&quot;font-size: 35px&quot; face=&quot;Georgia&quot;&gt;&lt;b&gt;&lt;font style=&quot;font-size: 35px&quot;&gt;&lt;font style=&quot;font-size: 35px&quot;&gt;Experimental Implementation&lt;/font&gt;&lt;br&gt;&lt;/font&gt;&lt;/b&gt;&lt;/font&gt;" style="text;html=1;align=center;verticalAlign=middle;resizable=0;points=[];autosize=1;" parent="1" vertex="1">
          <mxGeometry x="993" y="-55" width="560" height="30" as="geometry" />
        </mxCell>
      </root>
    </mxGraphModel>
  </diagram>
</mxfile>
